<svg width="1397" height="979" viewBox="0 0 1397 979" fill="none" xmlns="http://www.w3.org/2000/svg">
<g clip-path="url(#clip0_1_3)" filter="url(#filter0_d_1_3)">
<rect width="1389" height="971" transform="translate(4)" fill="#1A1A1A"/>
<path d="M92 175C92 169.477 96.4772 165 102 165H159C164.523 165 169 169.477 169 175V232C169 237.523 164.523 242 159 242H102C96.4772 242 92 237.523 92 232V175Z" fill="black"/>
<rect x="995" width="449" height="693" fill="#0C0C0C"/>
<rect x="1" y="330" width="449" height="693" fill="#0C0C0C"/>
<rect x="576" y="693" width="297" height="346" fill="#0C0C0C"/>
<rect x="681" width="407" height="422" fill="#272727"/>
<rect x="229" y="477" width="407" height="422" fill="#272727"/>
<path d="M183 3.5H232C237.799 3.5 242.5 8.20101 242.5 14V63C242.5 68.799 237.799 73.5 232 73.5H183C177.201 73.5 172.5 68.799 172.5 63V14C172.5 8.20101 177.201 3.5 183 3.5Z" fill="#1A1A1A" stroke="#9EFF9E" stroke-width="7"/>
<path d="M411 175C411 169.477 415.477 165 421 165H478C483.523 165 488 169.477 488 175V232C488 237.523 483.523 242 478 242H421C415.477 242 411 237.523 411 232V175Z" fill="black"/>
<path d="M400 10C400 4.47715 404.477 0 410 0H467C472.523 0 477 4.47715 477 10V67C477 72.5228 472.523 77 467 77H410C404.477 77 400 72.5228 400 67V10Z" fill="#65946A"/>
<path d="M334 98C334 92.4772 338.477 88 344 88H401C406.523 88 411 92.4772 411 98V155C411 160.523 406.523 165 401 165H344C338.477 165 334 160.523 334 155V98Z" fill="#323131"/>
<path d="M323 87C323 81.4772 327.477 77 333 77H390C395.523 77 400 81.4772 400 87V144C400 149.523 395.523 154 390 154H333C327.477 154 323 149.523 323 144V87Z" fill="#4B4B4B"/>
<path d="M488 175C488 169.477 492.477 165 498 165H555C560.523 165 565 169.477 565 175V232C565 237.523 560.523 242 555 242H498C492.477 242 488 237.523 488 232V175Z" fill="#65946A"/>
<path d="M730 175C730 169.477 734.477 165 740 165H797C802.523 165 807 169.477 807 175V232C807 237.523 802.523 242 797 242H740C734.477 242 730 237.523 730 232V175Z" fill="#65946A"/>
<path d="M1137 571C1137 565.477 1141.48 561 1147 561H1204C1209.52 561 1214 565.477 1214 571V628C1214 633.523 1209.52 638 1204 638H1147C1141.48 638 1137 633.523 1137 628V571Z" fill="#65946A"/>
<path d="M576 98C576 92.4772 580.477 88 586 88H643C648.523 88 653 92.4772 653 98V155C653 160.523 648.523 165 643 165H586C580.477 165 576 160.523 576 155V98Z" fill="#323131"/>
<path d="M818 98C818 92.4772 822.477 88 828 88H885C890.523 88 895 92.4772 895 98V155C895 160.523 890.523 165 885 165H828C822.477 165 818 160.523 818 155V98Z" fill="#323131"/>
<path d="M807 87C807 81.4772 811.477 77 817 77H874C879.523 77 884 81.4772 884 87V144C884 149.523 879.523 154 874 154H817C811.477 154 807 149.523 807 144V87Z" fill="#4B4B4B"/>
<path d="M1137 175C1137 169.477 1141.48 165 1147 165H1204C1209.52 165 1214 169.477 1214 175V232C1214 237.523 1209.52 242 1204 242H1147C1141.48 242 1137 237.523 1137 232V175Z" fill="black"/>
<path d="M972 175C972 169.477 976.477 165 982 165H1039C1044.52 165 1049 169.477 1049 175V232C1049 237.523 1044.52 242 1039 242H982C976.477 242 972 237.523 972 232V175Z" fill="#65946A"/>
<path d="M1060 98C1060 92.4772 1064.48 88 1070 88H1127C1132.52 88 1137 92.4772 1137 98V155C1137 160.523 1132.52 165 1127 165H1070C1064.48 165 1060 160.523 1060 155V98Z" fill="#323131"/>
<path d="M1049 87C1049 81.4772 1053.48 77 1059 77H1116C1121.52 77 1126 81.4772 1126 87V144C1126 149.523 1121.52 154 1116 154H1059C1053.48 154 1049 149.523 1049 144V87Z" fill="#4B4B4B"/>
<path d="M1379 175C1379 169.477 1383.48 165 1389 165H1446C1451.52 165 1456 169.477 1456 175V232C1456 237.523 1451.52 242 1446 242H1389C1383.48 242 1379 237.523 1379 232V175Z" fill="black"/>
<path d="M502 729.5H551C556.799 729.5 561.5 734.201 561.5 740V789C561.5 794.799 556.799 799.5 551 799.5H502C496.201 799.5 491.5 794.799 491.5 789V740C491.5 734.201 496.201 729.5 502 729.5Z" fill="#1A1A1A" stroke="#9EFF9E" stroke-width="7"/>
<path d="M1302 98C1302 92.4772 1306.48 88 1312 88H1369C1374.52 88 1379 92.4772 1379 98V155C1379 160.523 1374.52 165 1369 165H1312C1306.48 165 1302 160.523 1302 155V98Z" fill="#323131"/>
<path d="M169 417C169 411.477 173.477 407 179 407H236C241.523 407 246 411.477 246 417V474C246 479.523 241.523 484 236 484H179C173.477 484 169 479.523 169 474V417Z" fill="black"/>
<path d="M92 417C92 411.477 96.4772 407 102 407H159C164.523 407 169 411.477 169 417V474C169 479.523 164.523 484 159 484H102C96.4772 484 92 479.523 92 474V417Z" fill="#65946A"/>
<path d="M183 245.5H232C237.799 245.5 242.5 250.201 242.5 256V305C242.5 310.799 237.799 315.5 232 315.5H183C177.201 315.5 172.5 310.799 172.5 305V256C172.5 250.201 177.201 245.5 183 245.5Z" fill="#1A1A1A" stroke="#9EFF9E" stroke-width="7"/>
<path d="M92 340C92 334.477 96.4772 330 102 330H159C164.523 330 169 334.477 169 340V397C169 402.523 164.523 407 159 407H102C96.4772 407 92 402.523 92 397V340Z" fill="#323131"/>
<path d="M81 329C81 323.477 85.4772 319 91 319H148C153.523 319 158 323.477 158 329V386C158 391.523 153.523 396 148 396H91C85.4772 396 81 391.523 81 386V329Z" fill="#4B4B4B"/>
<path d="M411 417C411 411.477 415.477 407 421 407H478C483.523 407 488 411.477 488 417V474C488 479.523 483.523 484 478 484H421C415.477 484 411 479.523 411 474V417Z" fill="black"/>
<path d="M246 417C246 411.477 250.477 407 256 407H313C318.523 407 323 411.477 323 417V474C323 479.523 318.523 484 313 484H256C250.477 484 246 479.523 246 474V417Z" fill="#65946A"/>
<path d="M334 340C334 334.477 338.477 330 344 330H401C406.523 330 411 334.477 411 340V397C411 402.523 406.523 407 401 407H344C338.477 407 334 402.523 334 397V340Z" fill="#323131"/>
<path d="M323 329C323 323.477 327.477 319 333 319H390C395.523 319 400 323.477 400 329V386C400 391.523 395.523 396 390 396H333C327.477 396 323 391.523 323 386V329Z" fill="#4B4B4B"/>
<path d="M653 417C653 411.477 657.477 407 663 407H720C725.523 407 730 411.477 730 417V474C730 479.523 725.523 484 720 484H663C657.477 484 653 479.523 653 474V417Z" fill="black"/>
<path d="M667 245.5H716C721.799 245.5 726.5 250.201 726.5 256V305C726.5 310.799 721.799 315.5 716 315.5H667C661.201 315.5 656.5 310.799 656.5 305V256C656.5 250.201 661.201 245.5 667 245.5Z" fill="#1A1A1A" stroke="#9EFF9E" stroke-width="7"/>
<path d="M576 340C576 334.477 580.477 330 586 330H643C648.523 330 653 334.477 653 340V397C653 402.523 648.523 407 643 407H586C580.477 407 576 402.523 576 397V340Z" fill="#323131"/>
<path d="M565 329C565 323.477 569.477 319 575 319H632C637.523 319 642 323.477 642 329V386C642 391.523 637.523 396 632 396H575C569.477 396 565 391.523 565 386V329Z" fill="#4B4B4B"/>
<path d="M889 494C889 488.477 893.477 484 899 484H956C961.523 484 966 488.477 966 494V551C966 556.523 961.523 561 956 561H899C893.477 561 889 556.523 889 551V494Z" fill="black"/>
<path d="M1132 417C1132 411.477 1136.48 407 1142 407H1199C1204.52 407 1209 411.477 1209 417V474C1209 479.523 1204.52 484 1199 484H1142C1136.48 484 1132 479.523 1132 474V417Z" fill="black"/>
<path d="M1055 340C1055 334.477 1059.48 330 1065 330H1122C1127.52 330 1132 334.477 1132 340V397C1132 402.523 1127.52 407 1122 407H1065C1059.48 407 1055 402.523 1055 397V340Z" fill="#323131"/>
<g filter="url(#filter1_d_1_3)">
<path d="M488 421C488 413.268 494.268 407 502 407H551C558.732 407 565 413.268 565 421V470C565 477.732 558.732 484 551 484H502C494.268 484 488 477.732 488 470V421Z" fill="#1A1A1A"/>
<path d="M502 410.5H551C556.799 410.5 561.5 415.201 561.5 421V470C561.5 475.799 556.799 480.5 551 480.5H502C496.201 480.5 491.5 475.799 491.5 470V421C491.5 415.201 496.201 410.5 502 410.5Z" stroke="#9EFF9E" stroke-width="7"/>
</g>
<g filter="url(#filter2_d_1_3)">
<path d="M966 14C966 6.26801 972.268 0 980 0H1029C1036.73 0 1043 6.26801 1043 14V63C1043 70.732 1036.73 77 1029 77H980C972.268 77 966 70.732 966 63V14Z" fill="#1A1A1A"/>
<path d="M980 3.5H1029C1034.8 3.5 1039.5 8.20101 1039.5 14V63C1039.5 68.799 1034.8 73.5 1029 73.5H980C974.201 73.5 969.5 68.799 969.5 63V14C969.5 8.20101 974.201 3.5 980 3.5Z" stroke="#9EFF9E" stroke-width="7"/>
</g>
<g filter="url(#filter3_d_1_3)">
<path d="M1220 102C1220 94.268 1226.27 88 1234 88H1283C1290.73 88 1297 94.268 1297 102V151C1297 158.732 1290.73 165 1283 165H1234C1226.27 165 1220 158.732 1220 151V102Z" fill="#1A1A1A"/>
<path d="M1234 91.5H1283C1288.8 91.5 1293.5 96.201 1293.5 102V151C1293.5 156.799 1288.8 161.5 1283 161.5H1234C1228.2 161.5 1223.5 156.799 1223.5 151V102C1223.5 96.201 1228.2 91.5 1234 91.5Z" stroke="#9EFF9E" stroke-width="7"/>
</g>
<g filter="url(#filter4_d_1_3)">
<path d="M1137 740C1137 732.268 1143.27 726 1151 726H1200C1207.73 726 1214 732.268 1214 740V789C1214 796.732 1207.73 803 1200 803H1151C1143.27 803 1137 796.732 1137 789V740Z" fill="#1A1A1A"/>
<path d="M1151 729.5H1200C1205.8 729.5 1210.5 734.201 1210.5 740V789C1210.5 794.799 1205.8 799.5 1200 799.5H1151C1145.2 799.5 1140.5 794.799 1140.5 789V740C1140.5 734.201 1145.2 729.5 1151 729.5Z" stroke="#9EFF9E" stroke-width="7"/>
</g>
<g filter="url(#filter5_d_1_3)">
<path d="M1302 740C1302 732.268 1308.27 726 1316 726H1365C1372.73 726 1379 732.268 1379 740V789C1379 796.732 1372.73 803 1365 803H1316C1308.27 803 1302 796.732 1302 789V740Z" fill="#1A1A1A"/>
<path d="M1316 729.5H1365C1370.8 729.5 1375.5 734.201 1375.5 740V789C1375.5 794.799 1370.8 799.5 1365 799.5H1316C1310.2 799.5 1305.5 794.799 1305.5 789V740C1305.5 734.201 1310.2 729.5 1316 729.5Z" stroke="#9EFF9E" stroke-width="7"/>
</g>
<g filter="url(#filter6_d_1_3)">
<path d="M807 905C807 897.268 813.268 891 821 891H870C877.732 891 884 897.268 884 905V954C884 961.732 877.732 968 870 968H821C813.268 968 807 961.732 807 954V905Z" fill="#1A1A1A"/>
<path d="M821 894.5H870C875.799 894.5 880.5 899.201 880.5 905V954C880.5 959.799 875.799 964.5 870 964.5H821C815.201 964.5 810.5 959.799 810.5 954V905C810.5 899.201 815.201 894.5 821 894.5Z" stroke="#9EFF9E" stroke-width="7"/>
</g>
<g filter="url(#filter7_d_1_3)">
<path d="M488 740C488 732.268 494.268 726 502 726H551C558.732 726 565 732.268 565 740V789C565 796.732 558.732 803 551 803H502C494.268 803 488 796.732 488 789V740Z" fill="#1A1A1A"/>
<path d="M502 729.5H551C556.799 729.5 561.5 734.201 561.5 740V789C561.5 794.799 556.799 799.5 551 799.5H502C496.201 799.5 491.5 794.799 491.5 789V740C491.5 734.201 496.201 729.5 502 729.5Z" stroke="#9EFF9E" stroke-width="7"/>
</g>
<g filter="url(#filter8_d_1_3)">
<path d="M169 498C169 490.268 175.268 484 183 484H232C239.732 484 246 490.268 246 498V547C246 554.732 239.732 561 232 561H183C175.268 561 169 554.732 169 547V498Z" fill="#1A1A1A"/>
<path d="M183 487.5H232C237.799 487.5 242.5 492.201 242.5 498V547C242.5 552.799 237.799 557.5 232 557.5H183C177.201 557.5 172.5 552.799 172.5 547V498C172.5 492.201 177.201 487.5 183 487.5Z" stroke="#9EFF9E" stroke-width="7"/>
</g>
<g filter="url(#filter9_d_1_3)">
<path d="M169 256C169 248.268 175.268 242 183 242H232C239.732 242 246 248.268 246 256V305C246 312.732 239.732 319 232 319H183C175.268 319 169 312.732 169 305V256Z" fill="#1A1A1A"/>
<path d="M183 245.5H232C237.799 245.5 242.5 250.201 242.5 256V305C242.5 310.799 237.799 315.5 232 315.5H183C177.201 315.5 172.5 310.799 172.5 305V256C172.5 250.201 177.201 245.5 183 245.5Z" stroke="#9EFF9E" stroke-width="7"/>
</g>
<g filter="url(#filter10_d_1_3)">
<path d="M169 14C169 6.26801 175.268 0 183 0H232C239.732 0 246 6.26801 246 14V63C246 70.732 239.732 77 232 77H183C175.268 77 169 70.732 169 63V14Z" fill="#1A1A1A"/>
<path d="M183 3.5H232C237.799 3.5 242.5 8.20101 242.5 14V63C242.5 68.799 237.799 73.5 232 73.5H183C177.201 73.5 172.5 68.799 172.5 63V14C172.5 8.20101 177.201 3.5 183 3.5Z" stroke="#9EFF9E" stroke-width="7"/>
</g>
<g filter="url(#filter11_d_1_3)">
<path d="M81 905C81 897.268 87.268 891 95 891H144C151.732 891 158 897.268 158 905V954C158 961.732 151.732 968 144 968H95C87.268 968 81 961.732 81 954V905Z" fill="#1A1A1A"/>
<path d="M95 894.5H144C149.799 894.5 154.5 899.201 154.5 905V954C154.5 959.799 149.799 964.5 144 964.5H95C89.201 964.5 84.5 959.799 84.5 954V905C84.5 899.201 89.201 894.5 95 894.5Z" stroke="#9EFF9E" stroke-width="7"/>
</g>
<path d="M1379 417C1379 411.477 1383.48 407 1389 407H1446C1451.52 407 1456 411.477 1456 417V474C1456 479.523 1451.52 484 1446 484H1389C1383.48 484 1379 479.523 1379 474V417Z" fill="black"/>
<path d="M502 410.5H551C556.799 410.5 561.5 415.201 561.5 421V470C561.5 475.799 556.799 480.5 551 480.5H502C496.201 480.5 491.5 475.799 491.5 470V421C491.5 415.201 496.201 410.5 502 410.5Z" fill="#1A1A1A" stroke="#9EFF9E" stroke-width="7"/>
<path d="M1220 340C1220 334.477 1224.48 330 1230 330H1287C1292.52 330 1297 334.477 1297 340V397C1297 402.523 1292.52 407 1287 407H1230C1224.48 407 1220 402.523 1220 397V340Z" fill="#323131"/>
<path d="M1209 329C1209 323.477 1213.48 319 1219 319H1276C1281.52 319 1286 323.477 1286 329V386C1286 391.523 1281.52 396 1276 396H1219C1213.48 396 1209 391.523 1209 386V329Z" fill="#4B4B4B"/>
<path d="M169 659C169 653.477 173.477 649 179 649H236C241.523 649 246 653.477 246 659V716C246 721.523 241.523 726 236 726H179C173.477 726 169 721.523 169 716V659Z" fill="black"/>
<path d="M807 659C807 653.477 811.477 649 817 649H874C879.523 649 884 653.477 884 659V716C884 721.523 879.523 726 874 726H817C811.477 726 807 721.523 807 716V659Z" fill="#65946A"/>
<path d="M183 487.5H232C237.799 487.5 242.5 492.201 242.5 498V547C242.5 552.799 237.799 557.5 232 557.5H183C177.201 557.5 172.5 552.799 172.5 547V498C172.5 492.201 177.201 487.5 183 487.5Z" fill="#1A1A1A" stroke="#9EFF9E" stroke-width="7"/>
<path d="M92 582C92 576.477 96.4772 572 102 572H159C164.523 572 169 576.477 169 582V639C169 644.523 164.523 649 159 649H102C96.4772 649 92 644.523 92 639V582Z" fill="#323131"/>
<path d="M334 582C334 576.477 338.477 572 344 572H401C406.523 572 411 576.477 411 582V639C411 644.523 406.523 649 401 649H344C338.477 649 334 644.523 334 639V582Z" fill="#323131"/>
<path d="M653 659C653 653.477 657.477 649 663 649H720C725.523 649 730 653.477 730 659V716C730 721.523 725.523 726 720 726H663C657.477 726 653 721.523 653 716V659Z" fill="black"/>
<path d="M488 659C488 653.477 492.477 649 498 649H555C560.523 649 565 653.477 565 659V716C565 721.523 560.523 726 555 726H498C492.477 726 488 721.523 488 716V659Z" fill="#65946A"/>
<path d="M576 582C576 576.477 580.477 572 586 572H643C648.523 572 653 576.477 653 582V639C653 644.523 648.523 649 643 649H586C580.477 649 576 644.523 576 639V582Z" fill="#323131"/>
<path d="M565 571C565 565.477 569.477 561 575 561H632C637.523 561 642 565.477 642 571V628C642 633.523 637.523 638 632 638H575C569.477 638 565 633.523 565 628V571Z" fill="#4B4B4B"/>
<path d="M895 659C895 653.477 899.477 649 905 649H962C967.523 649 972 653.477 972 659V716C972 721.523 967.523 726 962 726H905C899.477 726 895 721.523 895 716V659Z" fill="black"/>
<path d="M1302 505C1302 499.477 1306.48 495 1312 495H1369C1374.52 495 1379 499.477 1379 505V562C1379 567.523 1374.52 572 1369 572H1312C1306.48 572 1302 567.523 1302 562V505Z" fill="#323131"/>
<path d="M1291 494C1291 488.477 1295.48 484 1301 484H1358C1363.52 484 1368 488.477 1368 494V551C1368 556.523 1363.52 561 1358 561H1301C1295.48 561 1291 556.523 1291 551V494Z" fill="#4B4B4B"/>
<path d="M1137 659C1137 653.477 1141.48 649 1147 649H1204C1209.52 649 1214 653.477 1214 659V716C1214 721.523 1209.52 726 1204 726H1147C1141.48 726 1137 721.523 1137 716V659Z" fill="black"/>
<g filter="url(#filter12_d_1_3)">
<path d="M1137 498C1137 490.268 1143.27 484 1151 484H1200C1207.73 484 1214 490.268 1214 498V547C1214 554.732 1207.73 561 1200 561H1151C1143.27 561 1137 554.732 1137 547V498Z" fill="#1A1A1A"/>
<path d="M1151 487.5H1200C1205.8 487.5 1210.5 492.201 1210.5 498V547C1210.5 552.799 1205.8 557.5 1200 557.5H1151C1145.2 557.5 1140.5 552.799 1140.5 547V498C1140.5 492.201 1145.2 487.5 1151 487.5Z" stroke="#9EFF9E" stroke-width="7"/>
</g>
<g filter="url(#filter13_d_1_3)">
<path d="M1137 498C1137 490.268 1143.27 484 1151 484H1200C1207.73 484 1214 490.268 1214 498V547C1214 554.732 1207.73 561 1200 561H1151C1143.27 561 1137 554.732 1137 547V498Z" fill="#1A1A1A"/>
<path d="M1151 487.5H1200C1205.8 487.5 1210.5 492.201 1210.5 498V547C1210.5 552.799 1205.8 557.5 1200 557.5H1151C1145.2 557.5 1140.5 552.799 1140.5 547V498C1140.5 492.201 1145.2 487.5 1151 487.5Z" stroke="#9EFF9E" stroke-width="7"/>
</g>
<g filter="url(#filter14_d_1_3)">
<path d="M653 256C653 248.268 659.268 242 667 242H716C723.732 242 730 248.268 730 256V305C730 312.732 723.732 319 716 319H667C659.268 319 653 312.732 653 305V256Z" fill="#1A1A1A"/>
<path d="M667 245.5H716C721.799 245.5 726.5 250.201 726.5 256V305C726.5 310.799 721.799 315.5 716 315.5H667C661.201 315.5 656.5 310.799 656.5 305V256C656.5 250.201 661.201 245.5 667 245.5Z" stroke="#9EFF9E" stroke-width="7"/>
</g>
<path d="M983 901C983 895.477 987.477 891 993 891H1050C1055.52 891 1060 895.477 1060 901V958C1060 963.523 1055.52 968 1050 968H993C987.477 968 983 963.523 983 958V901Z" fill="black"/>
<path d="M334 736C334 730.477 338.477 726 344 726H401C406.523 726 411 730.477 411 736V793C411 798.523 406.523 803 401 803H344C338.477 803 334 798.523 334 793V736Z" fill="#65946A"/>
<path d="M92 824C92 818.477 96.4772 814 102 814H159C164.523 814 169 818.477 169 824V881C169 886.523 164.523 891 159 891H102C96.4772 891 92 886.523 92 881V824Z" fill="#323131"/>
<path d="M81 813C81 807.477 85.4772 803 91 803H148C153.523 803 158 807.477 158 813V870C158 875.523 153.523 880 148 880H91C85.4772 880 81 875.523 81 870V813Z" fill="#4B4B4B"/>
<path d="M411 901C411 895.477 415.477 891 421 891H478C483.523 891 488 895.477 488 901V958C488 963.523 483.523 968 478 968H421C415.477 968 411 963.523 411 958V901Z" fill="black"/>
<path d="M246 901C246 895.477 250.477 891 256 891H313C318.523 891 323 895.477 323 901V958C323 963.523 318.523 968 313 968H256C250.477 968 246 963.523 246 958V901Z" fill="#65946A"/>
<path d="M95 894.5H144C149.799 894.5 154.5 899.201 154.5 905V954C154.5 959.799 149.799 964.5 144 964.5H95C89.201 964.5 84.5 959.799 84.5 954V905C84.5 899.201 89.201 894.5 95 894.5Z" fill="#1A1A1A" stroke="#9EFF9E" stroke-width="7"/>
<path d="M576 824C576 818.477 580.477 814 586 814H643C648.523 814 653 818.477 653 824V881C653 886.523 648.523 891 643 891H586C580.477 891 576 886.523 576 881V824Z" fill="#323131"/>
<path d="M730 901C730 895.477 734.477 891 740 891H797C802.523 891 807 895.477 807 901V958C807 963.523 802.523 968 797 968H740C734.477 968 730 963.523 730 958V901Z" fill="#65946A"/>
<path d="M821 894.5H870C875.799 894.5 880.5 899.201 880.5 905V954C880.5 959.799 875.799 964.5 870 964.5H821C815.201 964.5 810.5 959.799 810.5 954V905C810.5 899.201 815.201 894.5 821 894.5Z" fill="#1A1A1A" stroke="#9EFF9E" stroke-width="7"/>
<path d="M818 824C818 818.477 822.477 814 828 814H885C890.523 814 895 818.477 895 824V881C895 886.523 890.523 891 885 891H828C822.477 891 818 886.523 818 881V824Z" fill="#323131"/>
<path d="M807 813C807 807.477 811.477 803 817 803H874C879.523 803 884 807.477 884 813V870C884 875.523 879.523 880 874 880H817C811.477 880 807 875.523 807 870V813Z" fill="#4B4B4B"/>
<path d="M1137 901C1137 895.477 1141.48 891 1147 891H1204C1209.52 891 1214 895.477 1214 901V958C1214 963.523 1209.52 968 1204 968H1147C1141.48 968 1137 963.523 1137 958V901Z" fill="black"/>
<path d="M1151 729.5H1200C1205.8 729.5 1210.5 734.201 1210.5 740V789C1210.5 794.799 1205.8 799.5 1200 799.5H1151C1145.2 799.5 1140.5 794.799 1140.5 789V740C1140.5 734.201 1145.2 729.5 1151 729.5Z" fill="#1A1A1A" stroke="#9EFF9E" stroke-width="7"/>
<path d="M1060 824C1060 818.477 1064.48 814 1070 814H1127C1132.52 814 1137 818.477 1137 824V881C1137 886.523 1132.52 891 1127 891H1070C1064.48 891 1060 886.523 1060 881V824Z" fill="#323131"/>
<path d="M1012.5 620.5V578.5H1054.5V620.5H1012.5Z" fill="white" stroke="black" stroke-width="35"/>
<path d="M263.5 136.5V94.5H305.5V136.5H263.5Z" fill="white" stroke="black" stroke-width="35"/>
<path d="M109.5 708.5V666.5H151.5V708.5H109.5Z" fill="white" stroke="black" stroke-width="35"/>
<path d="M1072.5 785.5V743.5H1114.5V785.5H1072.5Z" fill="white" stroke="black" stroke-width="35"/>
<path d="M505.5 59.5V17.5H547.5V59.5H505.5Z" fill="white" stroke="black" stroke-width="35"/>
<path d="M741.5 543.5V501.5H783.5V543.5H741.5Z" fill="white" stroke="black" stroke-width="35"/>
<path d="M1303.5 301.5V259.5H1345.5V301.5H1303.5Z" fill="white" stroke="black" stroke-width="35"/>
<path d="M351.5 862.5V820.5H393.5V862.5H351.5Z" fill="white" stroke="black" stroke-width="35"/>
<path d="M906.5 389.5V347.5H948.5V389.5H906.5Z" fill="white" stroke="black" stroke-width="35"/>
<path d="M505.5 380.5V338.5H547.5V380.5H505.5Z" fill="white" stroke="black" stroke-width="35"/>
<path d="M1214 901C1214 895.477 1218.48 891 1224 891H1281C1286.52 891 1291 895.477 1291 901V958C1291 963.523 1286.52 968 1281 968H1224C1218.48 968 1214 963.523 1214 958V901Z" fill="#65946A"/>
<path d="M1316 729.5H1365C1370.8 729.5 1375.5 734.201 1375.5 740V789C1375.5 794.799 1370.8 799.5 1365 799.5H1316C1310.2 799.5 1305.5 794.799 1305.5 789V740C1305.5 734.201 1310.2 729.5 1316 729.5Z" fill="#1A1A1A" stroke="#9EFF9E" stroke-width="7"/>
<path d="M1302 824C1302 818.477 1306.48 814 1312 814H1369C1374.52 814 1379 818.477 1379 824V881C1379 886.523 1374.52 891 1369 891H1312C1306.48 891 1302 886.523 1302 881V824Z" fill="#323131"/>
</g>
<defs>
<filter id="filter0_d_1_3" x="0" y="0" width="1397" height="979" filterUnits="userSpaceOnUse" color-interpolation-filters="sRGB">
<feFlood flood-opacity="0" result="BackgroundImageFix"/>
<feColorMatrix in="SourceAlpha" type="matrix" values="0 0 0 0 0 0 0 0 0 0 0 0 0 0 0 0 0 0 127 0" result="hardAlpha"/>
<feOffset dy="4"/>
<feGaussianBlur stdDeviation="2"/>
<feComposite in2="hardAlpha" operator="out"/>
<feColorMatrix type="matrix" values="0 0 0 0 0 0 0 0 0 0 0 0 0 0 0 0 0 0 0.25 0"/>
<feBlend mode="normal" in2="BackgroundImageFix" result="effect1_dropShadow_1_3"/>
<feBlend mode="normal" in="SourceGraphic" in2="effect1_dropShadow_1_3" result="shape"/>
</filter>
<filter id="filter1_d_1_3" x="463" y="386" width="127" height="127" filterUnits="userSpaceOnUse" color-interpolation-filters="sRGB">
<feFlood flood-opacity="0" result="BackgroundImageFix"/>
<feColorMatrix in="SourceAlpha" type="matrix" values="0 0 0 0 0 0 0 0 0 0 0 0 0 0 0 0 0 0 127 0" result="hardAlpha"/>
<feOffset dy="4"/>
<feGaussianBlur stdDeviation="12.5"/>
<feComposite in2="hardAlpha" operator="out"/>
<feColorMatrix type="matrix" values="0 0 0 0 0.619608 0 0 0 0 1 0 0 0 0 0.619608 0 0 0 1 0"/>
<feBlend mode="lighten" in2="BackgroundImageFix" result="effect1_dropShadow_1_3"/>
<feBlend mode="normal" in="SourceGraphic" in2="effect1_dropShadow_1_3" result="shape"/>
</filter>
<filter id="filter2_d_1_3" x="941" y="-21" width="127" height="127" filterUnits="userSpaceOnUse" color-interpolation-filters="sRGB">
<feFlood flood-opacity="0" result="BackgroundImageFix"/>
<feColorMatrix in="SourceAlpha" type="matrix" values="0 0 0 0 0 0 0 0 0 0 0 0 0 0 0 0 0 0 127 0" result="hardAlpha"/>
<feOffset dy="4"/>
<feGaussianBlur stdDeviation="12.5"/>
<feComposite in2="hardAlpha" operator="out"/>
<feColorMatrix type="matrix" values="0 0 0 0 0.619608 0 0 0 0 1 0 0 0 0 0.619608 0 0 0 1 0"/>
<feBlend mode="lighten" in2="BackgroundImageFix" result="effect1_dropShadow_1_3"/>
<feBlend mode="normal" in="SourceGraphic" in2="effect1_dropShadow_1_3" result="shape"/>
</filter>
<filter id="filter3_d_1_3" x="1195" y="67" width="127" height="127" filterUnits="userSpaceOnUse" color-interpolation-filters="sRGB">
<feFlood flood-opacity="0" result="BackgroundImageFix"/>
<feColorMatrix in="SourceAlpha" type="matrix" values="0 0 0 0 0 0 0 0 0 0 0 0 0 0 0 0 0 0 127 0" result="hardAlpha"/>
<feOffset dy="4"/>
<feGaussianBlur stdDeviation="12.5"/>
<feComposite in2="hardAlpha" operator="out"/>
<feColorMatrix type="matrix" values="0 0 0 0 0.619608 0 0 0 0 1 0 0 0 0 0.619608 0 0 0 1 0"/>
<feBlend mode="lighten" in2="BackgroundImageFix" result="effect1_dropShadow_1_3"/>
<feBlend mode="normal" in="SourceGraphic" in2="effect1_dropShadow_1_3" result="shape"/>
</filter>
<filter id="filter4_d_1_3" x="1112" y="705" width="127" height="127" filterUnits="userSpaceOnUse" color-interpolation-filters="sRGB">
<feFlood flood-opacity="0" result="BackgroundImageFix"/>
<feColorMatrix in="SourceAlpha" type="matrix" values="0 0 0 0 0 0 0 0 0 0 0 0 0 0 0 0 0 0 127 0" result="hardAlpha"/>
<feOffset dy="4"/>
<feGaussianBlur stdDeviation="12.5"/>
<feComposite in2="hardAlpha" operator="out"/>
<feColorMatrix type="matrix" values="0 0 0 0 0.619608 0 0 0 0 1 0 0 0 0 0.619608 0 0 0 1 0"/>
<feBlend mode="lighten" in2="BackgroundImageFix" result="effect1_dropShadow_1_3"/>
<feBlend mode="normal" in="SourceGraphic" in2="effect1_dropShadow_1_3" result="shape"/>
</filter>
<filter id="filter5_d_1_3" x="1277" y="705" width="127" height="127" filterUnits="userSpaceOnUse" color-interpolation-filters="sRGB">
<feFlood flood-opacity="0" result="BackgroundImageFix"/>
<feColorMatrix in="SourceAlpha" type="matrix" values="0 0 0 0 0 0 0 0 0 0 0 0 0 0 0 0 0 0 127 0" result="hardAlpha"/>
<feOffset dy="4"/>
<feGaussianBlur stdDeviation="12.5"/>
<feComposite in2="hardAlpha" operator="out"/>
<feColorMatrix type="matrix" values="0 0 0 0 0.619608 0 0 0 0 1 0 0 0 0 0.619608 0 0 0 1 0"/>
<feBlend mode="lighten" in2="BackgroundImageFix" result="effect1_dropShadow_1_3"/>
<feBlend mode="normal" in="SourceGraphic" in2="effect1_dropShadow_1_3" result="shape"/>
</filter>
<filter id="filter6_d_1_3" x="782" y="870" width="127" height="127" filterUnits="userSpaceOnUse" color-interpolation-filters="sRGB">
<feFlood flood-opacity="0" result="BackgroundImageFix"/>
<feColorMatrix in="SourceAlpha" type="matrix" values="0 0 0 0 0 0 0 0 0 0 0 0 0 0 0 0 0 0 127 0" result="hardAlpha"/>
<feOffset dy="4"/>
<feGaussianBlur stdDeviation="12.5"/>
<feComposite in2="hardAlpha" operator="out"/>
<feColorMatrix type="matrix" values="0 0 0 0 0.619608 0 0 0 0 1 0 0 0 0 0.619608 0 0 0 1 0"/>
<feBlend mode="lighten" in2="BackgroundImageFix" result="effect1_dropShadow_1_3"/>
<feBlend mode="normal" in="SourceGraphic" in2="effect1_dropShadow_1_3" result="shape"/>
</filter>
<filter id="filter7_d_1_3" x="463" y="705" width="127" height="127" filterUnits="userSpaceOnUse" color-interpolation-filters="sRGB">
<feFlood flood-opacity="0" result="BackgroundImageFix"/>
<feColorMatrix in="SourceAlpha" type="matrix" values="0 0 0 0 0 0 0 0 0 0 0 0 0 0 0 0 0 0 127 0" result="hardAlpha"/>
<feOffset dy="4"/>
<feGaussianBlur stdDeviation="12.5"/>
<feComposite in2="hardAlpha" operator="out"/>
<feColorMatrix type="matrix" values="0 0 0 0 0.619608 0 0 0 0 1 0 0 0 0 0.619608 0 0 0 1 0"/>
<feBlend mode="lighten" in2="BackgroundImageFix" result="effect1_dropShadow_1_3"/>
<feBlend mode="normal" in="SourceGraphic" in2="effect1_dropShadow_1_3" result="shape"/>
</filter>
<filter id="filter8_d_1_3" x="144" y="463" width="127" height="127" filterUnits="userSpaceOnUse" color-interpolation-filters="sRGB">
<feFlood flood-opacity="0" result="BackgroundImageFix"/>
<feColorMatrix in="SourceAlpha" type="matrix" values="0 0 0 0 0 0 0 0 0 0 0 0 0 0 0 0 0 0 127 0" result="hardAlpha"/>
<feOffset dy="4"/>
<feGaussianBlur stdDeviation="12.5"/>
<feComposite in2="hardAlpha" operator="out"/>
<feColorMatrix type="matrix" values="0 0 0 0 0.619608 0 0 0 0 1 0 0 0 0 0.619608 0 0 0 1 0"/>
<feBlend mode="lighten" in2="BackgroundImageFix" result="effect1_dropShadow_1_3"/>
<feBlend mode="normal" in="SourceGraphic" in2="effect1_dropShadow_1_3" result="shape"/>
</filter>
<filter id="filter9_d_1_3" x="144" y="221" width="127" height="127" filterUnits="userSpaceOnUse" color-interpolation-filters="sRGB">
<feFlood flood-opacity="0" result="BackgroundImageFix"/>
<feColorMatrix in="SourceAlpha" type="matrix" values="0 0 0 0 0 0 0 0 0 0 0 0 0 0 0 0 0 0 127 0" result="hardAlpha"/>
<feOffset dy="4"/>
<feGaussianBlur stdDeviation="12.5"/>
<feComposite in2="hardAlpha" operator="out"/>
<feColorMatrix type="matrix" values="0 0 0 0 0.619608 0 0 0 0 1 0 0 0 0 0.619608 0 0 0 1 0"/>
<feBlend mode="lighten" in2="BackgroundImageFix" result="effect1_dropShadow_1_3"/>
<feBlend mode="normal" in="SourceGraphic" in2="effect1_dropShadow_1_3" result="shape"/>
</filter>
<filter id="filter10_d_1_3" x="144" y="-21" width="127" height="127" filterUnits="userSpaceOnUse" color-interpolation-filters="sRGB">
<feFlood flood-opacity="0" result="BackgroundImageFix"/>
<feColorMatrix in="SourceAlpha" type="matrix" values="0 0 0 0 0 0 0 0 0 0 0 0 0 0 0 0 0 0 127 0" result="hardAlpha"/>
<feOffset dy="4"/>
<feGaussianBlur stdDeviation="12.5"/>
<feComposite in2="hardAlpha" operator="out"/>
<feColorMatrix type="matrix" values="0 0 0 0 0.619608 0 0 0 0 1 0 0 0 0 0.619608 0 0 0 1 0"/>
<feBlend mode="lighten" in2="BackgroundImageFix" result="effect1_dropShadow_1_3"/>
<feBlend mode="normal" in="SourceGraphic" in2="effect1_dropShadow_1_3" result="shape"/>
</filter>
<filter id="filter11_d_1_3" x="56" y="870" width="127" height="127" filterUnits="userSpaceOnUse" color-interpolation-filters="sRGB">
<feFlood flood-opacity="0" result="BackgroundImageFix"/>
<feColorMatrix in="SourceAlpha" type="matrix" values="0 0 0 0 0 0 0 0 0 0 0 0 0 0 0 0 0 0 127 0" result="hardAlpha"/>
<feOffset dy="4"/>
<feGaussianBlur stdDeviation="12.5"/>
<feComposite in2="hardAlpha" operator="out"/>
<feColorMatrix type="matrix" values="0 0 0 0 0.619608 0 0 0 0 1 0 0 0 0 0.619608 0 0 0 1 0"/>
<feBlend mode="lighten" in2="BackgroundImageFix" result="effect1_dropShadow_1_3"/>
<feBlend mode="normal" in="SourceGraphic" in2="effect1_dropShadow_1_3" result="shape"/>
</filter>
<filter id="filter12_d_1_3" x="1112" y="463" width="127" height="127" filterUnits="userSpaceOnUse" color-interpolation-filters="sRGB">
<feFlood flood-opacity="0" result="BackgroundImageFix"/>
<feColorMatrix in="SourceAlpha" type="matrix" values="0 0 0 0 0 0 0 0 0 0 0 0 0 0 0 0 0 0 127 0" result="hardAlpha"/>
<feOffset dy="4"/>
<feGaussianBlur stdDeviation="12.5"/>
<feComposite in2="hardAlpha" operator="out"/>
<feColorMatrix type="matrix" values="0 0 0 0 0.619608 0 0 0 0 1 0 0 0 0 0.619608 0 0 0 1 0"/>
<feBlend mode="lighten" in2="BackgroundImageFix" result="effect1_dropShadow_1_3"/>
<feBlend mode="normal" in="SourceGraphic" in2="effect1_dropShadow_1_3" result="shape"/>
</filter>
<filter id="filter13_d_1_3" x="1112" y="463" width="127" height="127" filterUnits="userSpaceOnUse" color-interpolation-filters="sRGB">
<feFlood flood-opacity="0" result="BackgroundImageFix"/>
<feColorMatrix in="SourceAlpha" type="matrix" values="0 0 0 0 0 0 0 0 0 0 0 0 0 0 0 0 0 0 127 0" result="hardAlpha"/>
<feOffset dy="4"/>
<feGaussianBlur stdDeviation="12.5"/>
<feComposite in2="hardAlpha" operator="out"/>
<feColorMatrix type="matrix" values="0 0 0 0 0.619608 0 0 0 0 1 0 0 0 0 0.619608 0 0 0 1 0"/>
<feBlend mode="lighten" in2="BackgroundImageFix" result="effect1_dropShadow_1_3"/>
<feBlend mode="normal" in="SourceGraphic" in2="effect1_dropShadow_1_3" result="shape"/>
</filter>
<filter id="filter14_d_1_3" x="628" y="221" width="127" height="127" filterUnits="userSpaceOnUse" color-interpolation-filters="sRGB">
<feFlood flood-opacity="0" result="BackgroundImageFix"/>
<feColorMatrix in="SourceAlpha" type="matrix" values="0 0 0 0 0 0 0 0 0 0 0 0 0 0 0 0 0 0 127 0" result="hardAlpha"/>
<feOffset dy="4"/>
<feGaussianBlur stdDeviation="12.5"/>
<feComposite in2="hardAlpha" operator="out"/>
<feColorMatrix type="matrix" values="0 0 0 0 0.619608 0 0 0 0 1 0 0 0 0 0.619608 0 0 0 1 0"/>
<feBlend mode="lighten" in2="BackgroundImageFix" result="effect1_dropShadow_1_3"/>
<feBlend mode="normal" in="SourceGraphic" in2="effect1_dropShadow_1_3" result="shape"/>
</filter>
<clipPath id="clip0_1_3">
<rect width="1389" height="971" fill="white" transform="translate(4)"/>
</clipPath>
</defs>
</svg>
