<svg width="64" height="64" viewBox="0 0 64 64" fill="none" xmlns="http://www.w3.org/2000/svg">
<rect x="1.5" y="1.5" width="61" height="61" rx="7.5" fill="#1A1A1A"/>
<path d="M11 14C11 12.3431 12.3431 11 14 11H18C19.6569 11 21 12.3431 21 14V18C21 19.6569 19.6569 21 18 21H14C12.3431 21 11 19.6569 11 18V14Z" fill="white"/>
<path d="M27 14C27 12.3431 28.3431 11 30 11H34C35.6569 11 37 12.3431 37 14V18C37 19.6569 35.6569 21 34 21H30C28.3431 21 27 19.6569 27 18V14Z" fill="#EFEFEF"/>
<path d="M27 46C27 44.3431 28.3431 43 30 43H34C35.6569 43 37 44.3431 37 46V50C37 51.6569 35.6569 53 34 53H30C28.3431 53 27 51.6569 27 50V46Z" fill="#626262"/>
<path d="M43 14C43 12.3431 44.3431 11 46 11H50C51.6569 11 53 12.3431 53 14V18C53 19.6569 51.6569 21 50 21H46C44.3431 21 43 19.6569 43 18V14Z" fill="#DEDEDE"/>
<path d="M11 30C11 28.3431 12.3431 27 14 27H18C19.6569 27 21 28.3431 21 30V34C21 35.6569 19.6569 37 18 37H14C12.3431 37 11 35.6569 11 34V30Z" fill="#CACACA"/>
<path d="M43 30C43 28.3431 44.3431 27 46 27H50C51.6569 27 53 28.3431 53 30V34C53 35.6569 51.6569 37 50 37H46C44.3431 37 43 35.6569 43 34V30Z" fill="#A6A6A6"/>
<path d="M11 46C11 44.3431 12.3431 43 14 43H18C19.6569 43 21 44.3431 21 46V50C21 51.6569 19.6569 53 18 53H14C12.3431 53 11 51.6569 11 50V46Z" fill="#919191"/>
<path d="M27 30C27 28.3431 28.3431 27 30 27H34C35.6569 27 37 28.3431 37 30V34C37 35.6569 35.6569 37 34 37H30C28.3431 37 27 35.6569 27 34V30Z" fill="#B3B3B3"/>
<rect x="1.5" y="1.5" width="61" height="61" rx="7.5" stroke="#A5A5A5" stroke-width="3"/>
</svg>
