<svg width="64" height="64" viewBox="0 0 64 64" fill="none" xmlns="http://www.w3.org/2000/svg">
<rect width="64" height="64" rx="6" fill="#1A1A1A"/>
<path d="M2 5C2 3.34315 3.34315 2 5 2H19C20.6569 2 22 3.34315 22 5V19C22 20.6569 20.6569 22 19 22H5C3.34315 22 2 20.6569 2 19V5Z" fill="#65946A"/>
<path d="M42 5C42 3.34315 43.3431 2 45 2H59C60.6569 2 62 3.34315 62 5V19C62 20.6569 60.6569 22 59 22H45C43.3431 22 42 20.6569 42 19V5Z" fill="#9EFF9E"/>
<path d="M2 45C2 43.3431 3.34315 42 5 42H19C20.6569 42 22 43.3431 22 45V59C22 60.6569 20.6569 62 19 62H5C3.34315 62 2 60.6569 2 59V45Z" fill="#9EFF9E"/>
<path d="M22 25C22 23.3431 23.3431 22 25 22H39C40.6569 22 42 23.3431 42 25V39C42 40.6569 40.6569 42 39 42H25C23.3431 42 22 40.6569 22 39V25Z" fill="#4B4B4B"/>
</svg>
