<svg width="665" height="145" viewBox="0 0 665 145" fill="none" xmlns="http://www.w3.org/2000/svg">
<path d="M124.875 106.825C118.025 106.825 112.8 105.2 109.2 101.95C105.65 98.65 103.875 93.9 103.875 87.7V71.725C103.875 65.475 105.65 60.75 109.2 57.55C112.8 54.3 118.075 52.675 125.025 52.675C133.375 52.675 139.625 55.15 143.775 60.1L139.875 63.25C136.375 59.1 131.4 57.025 124.95 57.025C119.75 57.025 115.825 58.275 113.175 60.775C110.575 63.225 109.275 66.875 109.275 71.725V87.7C109.275 92.6 110.6 96.3 113.25 98.8C115.9 101.25 119.8 102.475 124.95 102.475C129.45 102.475 133.025 101.6 135.675 99.85C138.325 98.1 139.65 95.75 139.65 92.8V88C139.65 85.75 139.05 84.05 137.85 82.9C136.65 81.7 134.925 81.1 132.675 81.1H123.675V76.75H133.8C141.2 76.75 144.9 80.325 144.9 87.475V93.1C144.9 95.9 144.075 98.325 142.425 100.375C140.825 102.425 138.5 104.025 135.45 105.175C132.45 106.275 128.925 106.825 124.875 106.825ZM184.671 89.125H160.971L155.796 106H150.396L163.971 62.125C165.071 58.575 166.246 56.125 167.496 54.775C168.796 53.375 170.571 52.675 172.821 52.675C175.071 52.675 176.846 53.375 178.146 54.775C179.446 56.125 180.646 58.575 181.746 62.125L195.321 106H189.846L184.671 89.125ZM183.396 84.925L176.421 62.2C175.871 60.5 175.346 59.325 174.846 58.675C174.346 58.025 173.671 57.7 172.821 57.7C172.021 57.7 171.371 58.025 170.871 58.675C170.371 59.325 169.846 60.5 169.296 62.2L162.321 84.925H183.396ZM204.709 53.5H207.934C210.134 53.5 211.909 54 213.259 55C214.659 55.95 216.009 57.675 217.309 60.175L228.409 81.4L239.509 60.175C240.809 57.675 242.134 55.95 243.484 55C244.884 54 246.684 53.5 248.884 53.5H252.109V106H247.009V58.9C246.309 59 245.684 59.275 245.134 59.725C244.634 60.125 244.109 60.85 243.559 61.9L228.409 90.4L213.259 61.9C212.659 60.8 212.109 60.05 211.609 59.65C211.109 59.2 210.509 58.95 209.809 58.9V106H204.709V53.5ZM281.229 106C275.379 106 271.029 104.725 268.179 102.175C265.379 99.575 263.979 95.625 263.979 90.325V69.175C263.979 63.875 265.379 59.95 268.179 57.4C271.029 54.8 275.379 53.5 281.229 53.5H299.304V57.85H281.229C277.179 57.85 274.179 58.775 272.229 60.625C270.329 62.475 269.379 65.325 269.379 69.175V77.575H295.479V81.925H269.379V90.325C269.379 94.175 270.329 97.025 272.229 98.875C274.179 100.725 277.179 101.65 281.229 101.65H299.754V106H281.229ZM344.679 106.825C340.079 106.825 336.279 106.15 333.279 104.8C330.329 103.4 327.604 101.05 325.104 97.75L328.779 94.525C330.929 97.425 333.154 99.475 335.454 100.675C337.804 101.875 340.779 102.475 344.379 102.475C349.079 102.475 352.704 101.575 355.254 99.775C357.854 97.975 359.154 95.45 359.154 92.2C359.154 90.15 358.679 88.525 357.729 87.325C356.779 86.125 355.104 85.1 352.704 84.25C350.304 83.35 346.754 82.425 342.054 81.475C336.904 80.475 333.079 78.825 330.579 76.525C328.129 74.225 326.904 71.15 326.904 67.3C326.904 62.75 328.529 59.175 331.779 56.575C335.079 53.975 339.604 52.675 345.354 52.675C349.454 52.675 353.004 53.4 356.004 54.85C359.004 56.25 361.329 58.325 362.979 61.075L359.304 64.075C357.754 61.775 355.779 60.025 353.379 58.825C351.029 57.625 348.304 57.025 345.204 57.025C341.254 57.025 338.104 57.925 335.754 59.725C333.454 61.525 332.304 63.95 332.304 67C332.304 69.7 333.329 71.85 335.379 73.45C337.429 75 340.804 76.25 345.504 77.2C350.454 78.2 354.279 79.325 356.979 80.575C359.729 81.825 361.679 83.35 362.829 85.15C363.979 86.9 364.554 89.2 364.554 92.05C364.554 96.85 362.854 100.525 359.454 103.075C356.054 105.575 351.129 106.825 344.679 106.825ZM413.484 87.7C413.484 93.15 412.109 97.475 409.359 100.675C406.609 103.875 402.634 105.825 397.434 106.525C398.634 107.875 400.284 108.925 402.384 109.675C404.484 110.425 406.909 110.85 409.659 110.95V115.675C405.159 115.575 401.459 114.8 398.559 113.35C395.709 111.9 393.559 109.725 392.109 106.825C385.659 106.675 380.734 104.975 377.334 101.725C373.934 98.425 372.234 93.75 372.234 87.7V71.8C372.234 65.6 374.009 60.875 377.559 57.625C381.109 54.325 386.209 52.675 392.859 52.675C399.509 52.675 404.609 54.325 408.159 57.625C411.709 60.875 413.484 65.6 413.484 71.8V87.7ZM408.084 71.8C408.084 67.05 406.759 63.4 404.109 60.85C401.509 58.3 397.759 57.025 392.859 57.025C387.959 57.025 384.184 58.3 381.534 60.85C378.934 63.4 377.634 67.05 377.634 71.8V87.7C377.634 92.45 378.934 96.1 381.534 98.65C384.184 101.2 387.959 102.475 392.859 102.475C397.759 102.475 401.509 101.2 404.109 98.65C406.759 96.1 408.084 92.45 408.084 87.7V71.8ZM443.461 106.825C437.261 106.825 432.386 105.5 428.836 102.85C425.336 100.15 423.586 96.45 423.586 91.75V53.5H428.986V91.75C428.986 95.1 430.261 97.725 432.811 99.625C435.361 101.525 438.911 102.475 443.461 102.475C448.011 102.475 451.561 101.525 454.111 99.625C456.661 97.725 457.936 95.1 457.936 91.75V53.5H463.336V91.75C463.336 96.45 461.561 100.15 458.011 102.85C454.511 105.5 449.661 106.825 443.461 106.825ZM505.105 89.125H481.405L476.23 106H470.83L484.405 62.125C485.505 58.575 486.68 56.125 487.93 54.775C489.23 53.375 491.005 52.675 493.255 52.675C495.505 52.675 497.28 53.375 498.58 54.775C499.88 56.125 501.08 58.575 502.18 62.125L515.755 106H510.28L505.105 89.125ZM503.83 84.925L496.855 62.2C496.305 60.5 495.78 59.325 495.28 58.675C494.78 58.025 494.105 57.7 493.255 57.7C492.455 57.7 491.805 58.025 491.305 58.675C490.805 59.325 490.28 60.5 489.73 62.2L482.755 84.925H503.83ZM564.219 106H558.444L554.844 92.5C554.144 89.9 553.344 87.875 552.444 86.425C551.544 84.975 550.294 83.925 548.694 83.275C547.144 82.575 545.019 82.225 542.319 82.225H530.169V106H524.769V53.5H547.269C552.169 53.5 555.894 54.725 558.444 57.175C561.044 59.625 562.344 63.075 562.344 67.525C562.344 71.275 561.444 74.275 559.644 76.525C557.894 78.725 555.394 80.1 552.144 80.65C554.344 81.45 556.044 82.775 557.244 84.625C558.494 86.475 559.594 89.1 560.544 92.5L564.219 106ZM546.669 77.875C549.919 77.875 552.444 77 554.244 75.25C556.044 73.5 556.944 71.05 556.944 67.9C556.944 64.7 556.044 62.225 554.244 60.475C552.444 58.725 549.919 57.85 546.669 57.85H530.169V77.875H546.669ZM589.423 106C583.573 106 579.223 104.725 576.373 102.175C573.573 99.575 572.173 95.625 572.173 90.325V69.175C572.173 63.875 573.573 59.95 576.373 57.4C579.223 54.8 583.573 53.5 589.423 53.5H607.498V57.85H589.423C585.373 57.85 582.373 58.775 580.423 60.625C578.523 62.475 577.573 65.325 577.573 69.175V77.575H603.673V81.925H577.573V90.325C577.573 94.175 578.523 97.025 580.423 98.875C582.373 100.725 585.373 101.65 589.423 101.65H607.948V106H589.423ZM634.27 106.825C629.67 106.825 625.87 106.15 622.87 104.8C619.92 103.4 617.195 101.05 614.695 97.75L618.37 94.525C620.52 97.425 622.745 99.475 625.045 100.675C627.395 101.875 630.37 102.475 633.97 102.475C638.67 102.475 642.295 101.575 644.845 99.775C647.445 97.975 648.745 95.45 648.745 92.2C648.745 90.15 648.27 88.525 647.32 87.325C646.37 86.125 644.695 85.1 642.295 84.25C639.895 83.35 636.345 82.425 631.645 81.475C626.495 80.475 622.67 78.825 620.17 76.525C617.72 74.225 616.495 71.15 616.495 67.3C616.495 62.75 618.12 59.175 621.37 56.575C624.67 53.975 629.195 52.675 634.945 52.675C639.045 52.675 642.595 53.4 645.595 54.85C648.595 56.25 650.92 58.325 652.57 61.075L648.895 64.075C647.345 61.775 645.37 60.025 642.97 58.825C640.62 57.625 637.895 57.025 634.795 57.025C630.845 57.025 627.695 57.925 625.345 59.725C623.045 61.525 621.895 63.95 621.895 67C621.895 69.7 622.92 71.85 624.97 73.45C627.02 75 630.395 76.25 635.095 77.2C640.045 78.2 643.87 79.325 646.57 80.575C649.32 81.825 651.27 83.35 652.42 85.15C653.57 86.9 654.145 89.2 654.145 92.05C654.145 96.85 652.445 100.525 649.045 103.075C645.645 105.575 640.72 106.825 634.27 106.825Z" fill="#6D6D6D"/>
 
<defs>
<filter id="filter0_d_1_200" x="95.875" y="42.675" width="211.879" height="70.15" filterUnits="userSpaceOnUse" color-interpolation-filters="sRGB">
       
</filter>
</defs>
</svg>
