<svg width="665" height="145" viewBox="0 0 665 145" fill="none" xmlns="http://www.w3.org/2000/svg">
<path d="M124.875 106.825C118.025 106.825 112.8 105.2 109.2 101.95C105.65 98.65 103.875 93.9 103.875 87.7V71.725C103.875 65.475 105.65 60.75 109.2 57.55C112.8 54.3 118.075 52.675 125.025 52.675C133.375 52.675 139.625 55.15 143.775 60.1L139.875 63.25C136.375 59.1 131.4 57.025 124.95 57.025C119.75 57.025 115.825 58.275 113.175 60.775C110.575 63.225 109.275 66.875 109.275 71.725V87.7C109.275 92.6 110.6 96.3 113.25 98.8C115.9 101.25 119.8 102.475 124.95 102.475C129.45 102.475 133.025 101.6 135.675 99.85C138.325 98.1 139.65 95.75 139.65 92.8V88C139.65 85.75 139.05 84.05 137.85 82.9C136.65 81.7 134.925 81.1 132.675 81.1H123.675V76.75H133.8C141.2 76.75 144.9 80.325 144.9 87.475V93.1C144.9 95.9 144.075 98.325 142.425 100.375C140.825 102.425 138.5 104.025 135.45 105.175C132.45 106.275 128.925 106.825 124.875 106.825ZM184.671 89.125H160.971L155.796 106H150.396L163.971 62.125C165.071 58.575 166.246 56.125 167.496 54.775C168.796 53.375 170.571 52.675 172.821 52.675C175.071 52.675 176.846 53.375 178.146 54.775C179.446 56.125 180.646 58.575 181.746 62.125L195.321 106H189.846L184.671 89.125ZM183.396 84.925L176.421 62.2C175.871 60.5 175.346 59.325 174.846 58.675C174.346 58.025 173.671 57.7 172.821 57.7C172.021 57.7 171.371 58.025 170.871 58.675C170.371 59.325 169.846 60.5 169.296 62.2L162.321 84.925H183.396ZM204.709 53.5H207.934C210.134 53.5 211.909 54 213.259 55C214.659 55.95 216.009 57.675 217.309 60.175L228.409 81.4L239.509 60.175C240.809 57.675 242.134 55.95 243.484 55C244.884 54 246.684 53.5 248.884 53.5H252.109V106H247.009V58.9C246.309 59 245.684 59.275 245.134 59.725C244.634 60.125 244.109 60.85 243.559 61.9L228.409 90.4L213.259 61.9C212.659 60.8 212.109 60.05 211.609 59.65C211.109 59.2 210.509 58.95 209.809 58.9V106H204.709V53.5ZM281.229 106C275.379 106 271.029 104.725 268.179 102.175C265.379 99.575 263.979 95.625 263.979 90.325V69.175C263.979 63.875 265.379 59.95 268.179 57.4C271.029 54.8 275.379 53.5 281.229 53.5H299.304V57.85H281.229C277.179 57.85 274.179 58.775 272.229 60.625C270.329 62.475 269.379 65.325 269.379 69.175V77.575H295.479V81.925H269.379V90.325C269.379 94.175 270.329 97.025 272.229 98.875C274.179 100.725 277.179 101.65 281.229 101.65H299.754V106H281.229ZM344.679 106.825C340.079 106.825 336.279 106.15 333.279 104.8C330.329 103.4 327.604 101.05 325.104 97.75L328.779 94.525C330.929 97.425 333.154 99.475 335.454 100.675C337.804 101.875 340.779 102.475 344.379 102.475C349.079 102.475 352.704 101.575 355.254 99.775C357.854 97.975 359.154 95.45 359.154 92.2C359.154 90.15 358.679 88.525 357.729 87.325C356.779 86.125 355.104 85.1 352.704 84.25C350.304 83.35 346.754 82.425 342.054 81.475C336.904 80.475 333.079 78.825 330.579 76.525C328.129 74.225 326.904 71.15 326.904 67.3C326.904 62.75 328.529 59.175 331.779 56.575C335.079 53.975 339.604 52.675 345.354 52.675C349.454 52.675 353.004 53.4 356.004 54.85C359.004 56.25 361.329 58.325 362.979 61.075L359.304 64.075C357.754 61.775 355.779 60.025 353.379 58.825C351.029 57.625 348.304 57.025 345.204 57.025C341.254 57.025 338.104 57.925 335.754 59.725C333.454 61.525 332.304 63.95 332.304 67C332.304 69.7 333.329 71.85 335.379 73.45C337.429 75 340.804 76.25 345.504 77.2C350.454 78.2 354.279 79.325 356.979 80.575C359.729 81.825 361.679 83.35 362.829 85.15C363.979 86.9 364.554 89.2 364.554 92.05C364.554 96.85 362.854 100.525 359.454 103.075C356.054 105.575 351.129 106.825 344.679 106.825ZM413.484 87.7C413.484 93.15 412.109 97.475 409.359 100.675C406.609 103.875 402.634 105.825 397.434 106.525C398.634 107.875 400.284 108.925 402.384 109.675C404.484 110.425 406.909 110.85 409.659 110.95V115.675C405.159 115.575 401.459 114.8 398.559 113.35C395.709 111.9 393.559 109.725 392.109 106.825C385.659 106.675 380.734 104.975 377.334 101.725C373.934 98.425 372.234 93.75 372.234 87.7V71.8C372.234 65.6 374.009 60.875 377.559 57.625C381.109 54.325 386.209 52.675 392.859 52.675C399.509 52.675 404.609 54.325 408.159 57.625C411.709 60.875 413.484 65.6 413.484 71.8V87.7ZM408.084 71.8C408.084 67.05 406.759 63.4 404.109 60.85C401.509 58.3 397.759 57.025 392.859 57.025C387.959 57.025 384.184 58.3 381.534 60.85C378.934 63.4 377.634 67.05 377.634 71.8V87.7C377.634 92.45 378.934 96.1 381.534 98.65C384.184 101.2 387.959 102.475 392.859 102.475C397.759 102.475 401.509 101.2 404.109 98.65C406.759 96.1 408.084 92.45 408.084 87.7V71.8ZM443.461 106.825C437.261 106.825 432.386 105.5 428.836 102.85C425.336 100.15 423.586 96.45 423.586 91.75V53.5H428.986V91.75C428.986 95.1 430.261 97.725 432.811 99.625C435.361 101.525 438.911 102.475 443.461 102.475C448.011 102.475 451.561 101.525 454.111 99.625C456.661 97.725 457.936 95.1 457.936 91.75V53.5H463.336V91.75C463.336 96.45 461.561 100.15 458.011 102.85C454.511 105.5 449.661 106.825 443.461 106.825ZM505.105 89.125H481.405L476.23 106H470.83L484.405 62.125C485.505 58.575 486.68 56.125 487.93 54.775C489.23 53.375 491.005 52.675 493.255 52.675C495.505 52.675 497.28 53.375 498.58 54.775C499.88 56.125 501.08 58.575 502.18 62.125L515.755 106H510.28L505.105 89.125ZM503.83 84.925L496.855 62.2C496.305 60.5 495.78 59.325 495.28 58.675C494.78 58.025 494.105 57.7 493.255 57.7C492.455 57.7 491.805 58.025 491.305 58.675C490.805 59.325 490.28 60.5 489.73 62.2L482.755 84.925H503.83ZM564.219 106H558.444L554.844 92.5C554.144 89.9 553.344 87.875 552.444 86.425C551.544 84.975 550.294 83.925 548.694 83.275C547.144 82.575 545.019 82.225 542.319 82.225H530.169V106H524.769V53.5H547.269C552.169 53.5 555.894 54.725 558.444 57.175C561.044 59.625 562.344 63.075 562.344 67.525C562.344 71.275 561.444 74.275 559.644 76.525C557.894 78.725 555.394 80.1 552.144 80.65C554.344 81.45 556.044 82.775 557.244 84.625C558.494 86.475 559.594 89.1 560.544 92.5L564.219 106ZM546.669 77.875C549.919 77.875 552.444 77 554.244 75.25C556.044 73.5 556.944 71.05 556.944 67.9C556.944 64.7 556.044 62.225 554.244 60.475C552.444 58.725 549.919 57.85 546.669 57.85H530.169V77.875H546.669ZM589.423 106C583.573 106 579.223 104.725 576.373 102.175C573.573 99.575 572.173 95.625 572.173 90.325V69.175C572.173 63.875 573.573 59.95 576.373 57.4C579.223 54.8 583.573 53.5 589.423 53.5H607.498V57.85H589.423C585.373 57.85 582.373 58.775 580.423 60.625C578.523 62.475 577.573 65.325 577.573 69.175V77.575H603.673V81.925H577.573V90.325C577.573 94.175 578.523 97.025 580.423 98.875C582.373 100.725 585.373 101.65 589.423 101.65H607.948V106H589.423ZM634.27 106.825C629.67 106.825 625.87 106.15 622.87 104.8C619.92 103.4 617.195 101.05 614.695 97.75L618.37 94.525C620.52 97.425 622.745 99.475 625.045 100.675C627.395 101.875 630.37 102.475 633.97 102.475C638.67 102.475 642.295 101.575 644.845 99.775C647.445 97.975 648.745 95.45 648.745 92.2C648.745 90.15 648.27 88.525 647.32 87.325C646.37 86.125 644.695 85.1 642.295 84.25C639.895 83.35 636.345 82.425 631.645 81.475C626.495 80.475 622.67 78.825 620.17 76.525C617.72 74.225 616.495 71.15 616.495 67.3C616.495 62.75 618.12 59.175 621.37 56.575C624.67 53.975 629.195 52.675 634.945 52.675C639.045 52.675 642.595 53.4 645.595 54.85C648.595 56.25 650.92 58.325 652.57 61.075L648.895 64.075C647.345 61.775 645.37 60.025 642.97 58.825C640.62 57.625 637.895 57.025 634.795 57.025C630.845 57.025 627.695 57.925 625.345 59.725C623.045 61.525 621.895 63.95 621.895 67C621.895 69.7 622.92 71.85 624.97 73.45C627.02 75 630.395 76.25 635.095 77.2C640.045 78.2 643.87 79.325 646.57 80.575C649.32 81.825 651.27 83.35 652.42 85.15C653.57 86.9 654.145 89.2 654.145 92.05C654.145 96.85 652.445 100.525 649.045 103.075C645.645 105.575 640.72 106.825 634.27 106.825Z" fill="#4B4B4B"/>
<path d="M109.2 101.95L106.477 104.88L106.498 104.9L106.52 104.919L109.2 101.95ZM109.2 57.55L111.878 60.5211L111.88 60.5191L109.2 57.55ZM143.775 60.1L146.288 63.2118L149.458 60.652L146.84 57.5301L143.775 60.1ZM139.875 63.25L136.817 65.8288L139.342 68.8223L142.388 66.3618L139.875 63.25ZM113.175 60.775L115.918 63.6862L115.92 63.6846L113.175 60.775ZM113.25 98.8L110.505 101.71L110.52 101.723L110.535 101.737L113.25 98.8ZM135.675 99.85L133.471 96.5121L133.471 96.5121L135.675 99.85ZM137.85 82.9L135.022 85.7284L135.052 85.7585L135.082 85.788L137.85 82.9ZM123.675 81.1H119.675V85.1H123.675V81.1ZM123.675 76.75V72.75H119.675V76.75H123.675ZM142.425 100.375L139.309 97.867L139.29 97.8903L139.272 97.9139L142.425 100.375ZM135.45 105.175L136.827 108.931L136.844 108.924L136.861 108.918L135.45 105.175ZM124.875 102.825C118.608 102.825 114.491 101.338 111.88 98.9809L106.52 104.919C111.109 109.062 117.442 110.825 124.875 110.825V102.825ZM111.923 99.0203C109.401 96.6753 107.875 93.1175 107.875 87.7H99.875C99.875 94.6825 101.899 100.625 106.477 104.88L111.923 99.0203ZM107.875 87.7V71.725H99.875V87.7H107.875ZM107.875 71.725C107.875 66.2392 109.409 62.7466 111.878 60.5211L106.522 54.5789C101.891 58.7534 99.875 64.7108 99.875 71.725H107.875ZM111.88 60.5191C114.481 58.1709 118.64 56.675 125.025 56.675V48.675C117.51 48.675 111.119 50.4291 106.52 54.5809L111.88 60.5191ZM125.025 56.675C132.564 56.675 137.53 58.8774 140.71 62.6699L146.84 57.5301C141.72 51.4226 134.186 48.675 125.025 48.675V56.675ZM141.262 56.9882L137.362 60.1382L142.388 66.3618L146.288 63.2118L141.262 56.9882ZM142.933 60.6712C138.528 55.4482 132.334 53.025 124.95 53.025V61.025C130.466 61.025 134.222 62.7517 136.817 65.8288L142.933 60.6712ZM124.95 53.025C119.165 53.025 114.088 54.4145 110.43 57.8654L115.92 63.6846C117.562 62.1355 120.335 61.025 124.95 61.025V53.025ZM110.432 57.8638C106.774 61.3103 105.275 66.1813 105.275 71.725H113.275C113.275 67.5687 114.376 65.1397 115.918 63.6862L110.432 57.8638ZM105.275 71.725V87.7H113.275V71.725H105.275ZM105.275 87.7C105.275 93.3064 106.806 98.22 110.505 101.71L115.995 95.8904C114.394 94.38 113.275 91.8936 113.275 87.7H105.275ZM110.535 101.737C114.187 105.114 119.221 106.475 124.95 106.475V98.475C120.379 98.475 117.613 97.3859 115.965 95.8629L110.535 101.737ZM124.95 106.475C129.921 106.475 134.355 105.515 137.879 103.188L133.471 96.5121C131.695 97.6851 128.979 98.475 124.95 98.475V106.475ZM137.879 103.188C141.548 100.765 143.65 97.2114 143.65 92.8H135.65C135.65 94.2886 135.102 95.4352 133.471 96.5121L137.879 103.188ZM143.65 92.8V88H135.65V92.8H143.65ZM143.65 88C143.65 85.0586 142.853 82.154 140.618 80.012L135.082 85.788C135.247 85.946 135.65 86.4414 135.65 88H143.65ZM140.678 80.0716C138.508 77.9015 135.628 77.1 132.675 77.1V85.1C134.222 85.1 134.792 85.4985 135.022 85.7284L140.678 80.0716ZM132.675 77.1H123.675V85.1H132.675V77.1ZM127.675 81.1V76.75H119.675V81.1H127.675ZM123.675 80.75H133.8V72.75H123.675V80.75ZM133.8 80.75C136.917 80.75 138.514 81.5046 139.346 82.3079C140.151 83.0864 140.9 84.5522 140.9 87.475H148.9C148.9 83.2478 147.799 79.3511 144.904 76.5546C142.036 73.7829 138.083 72.75 133.8 72.75V80.75ZM140.9 87.475V93.1H148.9V87.475H140.9ZM140.9 93.1C140.9 95.0504 140.349 96.5751 139.309 97.867L145.541 102.883C147.801 100.075 148.9 96.7496 148.9 93.1H140.9ZM139.272 97.9139C138.225 99.2547 136.574 100.476 134.039 101.432L136.861 108.918C140.426 107.574 143.425 105.595 145.578 102.836L139.272 97.9139ZM134.073 101.419C131.614 102.321 128.575 102.825 124.875 102.825V110.825C129.275 110.825 133.286 110.229 136.827 108.931L134.073 101.419ZM184.671 89.125L188.495 87.9522L187.628 85.125H184.671V89.125ZM160.971 89.125V85.125H158.013L157.146 87.9522L160.971 89.125ZM155.796 106V110H158.753L159.62 107.173L155.796 106ZM150.396 106L146.574 104.818L144.971 110H150.396V106ZM163.971 62.125L160.15 60.9411L160.149 60.9427L163.971 62.125ZM167.496 54.775L164.564 52.0532L164.56 52.0574L167.496 54.775ZM178.146 54.775L175.214 57.4968L175.239 57.5234L175.264 57.5496L178.146 54.775ZM181.746 62.125L185.567 60.9427L185.566 60.9411L181.746 62.125ZM195.321 106V110H200.745L199.142 104.818L195.321 106ZM189.846 106L186.021 107.173L186.888 110H189.846V106ZM183.396 84.925V88.925H188.807L187.219 83.7513L183.396 84.925ZM176.421 62.2L180.244 61.0263L180.236 60.9974L180.226 60.9687L176.421 62.2ZM174.846 58.675L171.675 61.1138L171.675 61.1138L174.846 58.675ZM170.871 58.675L167.7 56.2362L167.7 56.2362L170.871 58.675ZM169.296 62.2L165.49 60.9687L165.48 60.9974L165.472 61.0263L169.296 62.2ZM162.321 84.925L158.497 83.7513L156.909 88.925H162.321V84.925ZM184.671 85.125H160.971V93.125H184.671V85.125ZM157.146 87.9522L151.971 104.827L159.62 107.173L164.795 90.2978L157.146 87.9522ZM155.796 102H150.396V110H155.796V102ZM154.217 107.182L167.792 63.3073L160.149 60.9427L146.574 104.818L154.217 107.182ZM167.791 63.3089C168.859 59.8632 169.823 58.1489 170.431 57.4926L164.56 52.0574C162.668 54.1011 161.282 57.2868 160.15 60.9411L167.791 63.3089ZM170.427 57.4968C170.835 57.0573 171.467 56.675 172.821 56.675V48.675C169.674 48.675 166.756 49.6927 164.564 52.0532L170.427 57.4968ZM172.821 56.675C174.174 56.675 174.806 57.0573 175.214 57.4968L181.077 52.0532C178.885 49.6927 175.967 48.675 172.821 48.675V56.675ZM175.264 57.5496C175.884 58.1927 176.862 59.8797 177.925 63.3089L185.566 60.9411C184.429 57.2703 183.007 54.0573 181.027 52.0004L175.264 57.5496ZM177.924 63.3073L191.499 107.182L199.142 104.818L185.567 60.9427L177.924 63.3073ZM195.321 102H189.846V110H195.321V102ZM193.67 104.827L188.495 87.9522L180.846 90.2978L186.021 107.173L193.67 104.827ZM187.219 83.7513L180.244 61.0263L172.597 63.3737L179.572 86.0987L187.219 83.7513ZM180.226 60.9687C179.662 59.2238 178.968 57.4732 178.016 56.2362L171.675 61.1138C171.657 61.0905 171.764 61.2323 171.962 61.6755C172.149 62.0932 172.368 62.6694 172.615 63.4313L180.226 60.9687ZM178.016 56.2362C176.727 54.5606 174.859 53.7 172.821 53.7V61.7C172.726 61.7 172.502 61.679 172.229 61.5478C171.952 61.4143 171.769 61.2363 171.675 61.1138L178.016 56.2362ZM172.821 53.7C170.743 53.7 168.935 54.6307 167.7 56.2362L174.041 61.1138C173.97 61.2061 173.803 61.3807 173.522 61.5215C173.237 61.6638 172.978 61.7 172.821 61.7V53.7ZM167.7 56.2362C166.748 57.4732 166.054 59.2238 165.49 60.9687L173.101 63.4313C173.348 62.6694 173.567 62.0932 173.754 61.6755C173.952 61.2323 174.059 61.0905 174.041 61.1138L167.7 56.2362ZM165.472 61.0263L158.497 83.7513L166.144 86.0987L173.119 63.3737L165.472 61.0263ZM162.321 88.925H183.396V80.925H162.321V88.925ZM204.709 53.5V49.5H200.709V53.5H204.709ZM213.259 55L210.878 58.2142L210.945 58.2635L211.013 58.3099L213.259 55ZM217.309 60.175L213.76 62.0204L213.764 62.0287L217.309 60.175ZM228.409 81.4L224.864 83.2537L228.409 90.0314L231.954 83.2537L228.409 81.4ZM239.509 60.175L243.054 62.0287L243.058 62.0204L239.509 60.175ZM243.484 55L245.786 58.2712L245.797 58.2631L245.809 58.2549L243.484 55ZM252.109 53.5H256.109V49.5H252.109V53.5ZM252.109 106V110H256.109V106H252.109ZM247.009 106H243.009V110H247.009V106ZM247.009 58.9H251.009V54.288L246.443 54.9402L247.009 58.9ZM245.134 59.725L247.633 62.8485L247.65 62.8347L247.667 62.8208L245.134 59.725ZM243.559 61.9L247.091 63.7775L247.097 63.7668L247.102 63.756L243.559 61.9ZM228.409 90.4L224.877 92.2775L228.409 98.9218L231.941 92.2775L228.409 90.4ZM213.259 61.9L216.791 60.0225L216.781 60.0035L216.771 59.9846L213.259 61.9ZM211.609 59.65L208.933 62.6232L209.019 62.7009L209.11 62.7735L211.609 59.65ZM209.809 58.9L210.094 54.9102L205.809 54.6041V58.9H209.809ZM209.809 106V110H213.809V106H209.809ZM204.709 106H200.709V110H204.709V106ZM204.709 57.5H207.934V49.5H204.709V57.5ZM207.934 57.5C209.541 57.5 210.403 57.8624 210.878 58.2142L215.64 51.7858C213.415 50.1376 210.727 49.5 207.934 49.5V57.5ZM211.013 58.3099C211.613 58.7171 212.586 59.7634 213.76 62.0204L220.858 58.3296C219.431 55.5866 217.705 53.1829 215.505 51.6901L211.013 58.3099ZM213.764 62.0287L224.864 83.2537L231.954 79.5463L220.854 58.3213L213.764 62.0287ZM231.954 83.2537L243.054 62.0287L235.964 58.3213L224.864 79.5463L231.954 83.2537ZM243.058 62.0204C244.244 59.739 245.208 58.6782 245.786 58.2712L241.182 51.7288C239.06 53.2218 237.374 55.611 235.96 58.3296L243.058 62.0204ZM245.809 58.2549C246.363 57.8592 247.285 57.5 248.884 57.5V49.5C246.083 49.5 243.405 50.1408 241.159 51.7451L245.809 58.2549ZM248.884 57.5H252.109V49.5H248.884V57.5ZM248.109 53.5V106H256.109V53.5H248.109ZM252.109 102H247.009V110H252.109V102ZM251.009 106V58.9H243.009V106H251.009ZM246.443 54.9402C245.017 55.1439 243.713 55.7196 242.601 56.6292L247.667 62.8208C247.671 62.8173 247.669 62.8193 247.661 62.8245C247.653 62.8297 247.641 62.8361 247.626 62.8425C247.612 62.8489 247.598 62.8535 247.587 62.8566C247.577 62.8597 247.572 62.8602 247.575 62.8598L246.443 54.9402ZM242.635 56.6015C241.477 57.5282 240.641 58.8505 240.016 60.044L247.102 63.756C247.315 63.3504 247.485 63.0809 247.605 62.9148C247.733 62.7374 247.75 62.7545 247.633 62.8485L242.635 56.6015ZM240.027 60.0225L224.877 88.5225L231.941 92.2775L247.091 63.7775L240.027 60.0225ZM231.941 88.5225L216.791 60.0225L209.727 63.7775L224.877 92.2775L231.941 88.5225ZM216.771 59.9846C216.113 58.7788 215.253 57.443 214.108 56.5265L209.11 62.7735C208.993 62.6793 209.019 62.6707 209.171 62.878C209.312 63.07 209.505 63.3718 209.747 63.8154L216.771 59.9846ZM214.285 56.6768C213.093 55.6042 211.641 55.0206 210.094 54.9102L209.524 62.8898C209.477 62.8865 209.375 62.8713 209.246 62.8173C209.114 62.7625 209.007 62.6897 208.933 62.6232L214.285 56.6768ZM205.809 58.9V106H213.809V58.9H205.809ZM209.809 102H204.709V110H209.809V102ZM208.709 106V53.5H200.709V106H208.709ZM268.179 102.175L265.457 105.106L265.484 105.131L265.512 105.156L268.179 102.175ZM268.179 57.4L270.872 60.3574L270.875 60.3551L268.179 57.4ZM299.304 53.5H303.304V49.5H299.304V53.5ZM299.304 57.85V61.85H303.304V57.85H299.304ZM272.229 60.625L269.476 57.7231L269.457 57.741L269.438 57.7591L272.229 60.625ZM269.379 77.575H265.379V81.575H269.379V77.575ZM295.479 77.575H299.479V73.575H295.479V77.575ZM295.479 81.925V85.925H299.479V81.925H295.479ZM269.379 81.925V77.925H265.379V81.925H269.379ZM272.229 98.875L269.438 101.741L269.457 101.759L269.476 101.777L272.229 98.875ZM299.754 101.65H303.754V97.65H299.754V101.65ZM299.754 106V110H303.754V106H299.754ZM281.229 102C275.86 102 272.659 100.816 270.846 99.194L265.512 105.156C269.399 108.634 274.898 110 281.229 110V102ZM270.901 99.2438C269.192 97.6573 267.979 94.9564 267.979 90.325H259.979C259.979 96.2936 261.566 101.493 265.457 105.106L270.901 99.2438ZM267.979 90.325V69.175H259.979V90.325H267.979ZM267.979 69.175C267.979 64.5374 269.194 61.8853 270.872 60.3574L265.486 54.4426C261.563 58.0147 259.979 63.2126 259.979 69.175H267.979ZM270.875 60.3551C272.687 58.7017 275.876 57.5 281.229 57.5V49.5C274.881 49.5 269.371 50.8983 265.483 54.4449L270.875 60.3551ZM281.229 57.5H299.304V49.5H281.229V57.5ZM295.304 53.5V57.85H303.304V53.5H295.304ZM299.304 53.85H281.229V61.85H299.304V53.85ZM281.229 53.85C276.663 53.85 272.47 54.8825 269.476 57.7231L274.982 63.5269C275.888 62.6675 277.695 61.85 281.229 61.85V53.85ZM269.438 57.7591C266.473 60.6464 265.379 64.7358 265.379 69.175H273.379C273.379 65.9142 274.185 64.3036 275.019 63.4909L269.438 57.7591ZM265.379 69.175V77.575H273.379V69.175H265.379ZM269.379 81.575H295.479V73.575H269.379V81.575ZM291.479 77.575V81.925H299.479V77.575H291.479ZM295.479 77.925H269.379V85.925H295.479V77.925ZM265.379 81.925V90.325H273.379V81.925H265.379ZM265.379 90.325C265.379 94.7642 266.473 98.8536 269.438 101.741L275.019 96.0091C274.185 95.1964 273.379 93.5858 273.379 90.325H265.379ZM269.476 101.777C272.47 104.618 276.663 105.65 281.229 105.65V97.65C277.695 97.65 275.888 96.8325 274.982 95.9731L269.476 101.777ZM281.229 105.65H299.754V97.65H281.229V105.65ZM295.754 101.65V106H303.754V101.65H295.754ZM299.754 102H281.229V110H299.754V102ZM333.279 104.8L331.565 108.414L331.601 108.431L331.638 108.448L333.279 104.8ZM325.104 97.75L322.466 94.7435L319.668 97.1986L321.916 100.165L325.104 97.75ZM328.779 94.525L331.993 92.1428L329.406 88.6535L326.141 91.5185L328.779 94.525ZM335.454 100.675L333.604 104.221L333.62 104.229L333.635 104.237L335.454 100.675ZM355.254 99.775L352.978 96.4862L352.963 96.4966L352.948 96.5071L355.254 99.775ZM357.729 87.325L360.866 84.8422L360.866 84.8422L357.729 87.325ZM352.704 84.25L351.3 87.9953L351.334 88.0082L351.369 88.0205L352.704 84.25ZM342.054 81.475L342.847 77.5543L342.832 77.5513L342.817 77.5483L342.054 81.475ZM330.579 76.525L327.842 79.4413L327.856 79.4551L327.871 79.4687L330.579 76.525ZM331.779 56.575L329.304 53.433L329.292 53.4422L329.281 53.4515L331.779 56.575ZM356.004 54.85L354.264 58.4514L354.288 58.4632L354.313 58.4747L356.004 54.85ZM362.979 61.075L365.509 64.1736L368.19 61.9849L366.409 59.017L362.979 61.075ZM359.304 64.075L355.987 66.3104L358.438 69.9462L361.834 67.1736L359.304 64.075ZM353.379 58.825L351.56 62.3874L351.575 62.3951L351.591 62.4027L353.379 58.825ZM335.754 59.725L333.322 56.5495L333.306 56.5621L333.289 56.575L335.754 59.725ZM335.379 73.45L332.918 76.6033L332.943 76.6221L332.967 76.6406L335.379 73.45ZM345.504 77.2L344.712 81.1207L344.712 81.1208L345.504 77.2ZM356.979 80.575L355.299 84.2049L355.312 84.2107L355.324 84.2165L356.979 80.575ZM362.829 85.15L359.459 87.3036L359.473 87.3252L359.487 87.3467L362.829 85.15ZM359.454 103.075L361.824 106.298L361.839 106.286L361.854 106.275L359.454 103.075ZM344.679 102.825C340.435 102.825 337.242 102.197 334.921 101.152L331.638 108.448C335.317 110.103 339.724 110.825 344.679 110.825V102.825ZM334.994 101.186C332.759 100.126 330.506 98.2564 328.293 95.3346L321.916 100.165C324.703 103.844 327.9 106.674 331.565 108.414L334.994 101.186ZM327.743 100.757L331.418 97.5315L326.141 91.5185L322.466 94.7435L327.743 100.757ZM325.566 96.9072C327.944 100.114 330.6 102.654 333.604 104.221L337.305 97.1287C335.709 96.296 333.915 94.7355 331.993 92.1428L325.566 96.9072ZM333.635 104.237C336.716 105.81 340.366 106.475 344.379 106.475V98.475C341.193 98.475 338.893 97.9397 337.274 97.1126L333.635 104.237ZM344.379 106.475C349.512 106.475 354.074 105.505 357.561 103.043L352.948 96.5071C351.335 97.6453 348.647 98.475 344.379 98.475V106.475ZM357.531 103.064C361.246 100.492 363.154 96.7191 363.154 92.2H355.154C355.154 94.1809 354.463 95.4578 352.978 96.4862L357.531 103.064ZM363.154 92.2C363.154 89.554 362.539 86.9559 360.866 84.8422L354.593 89.8078C354.82 90.0941 355.154 90.746 355.154 92.2H363.154ZM360.866 84.8422C359.233 82.7794 356.728 81.4317 354.04 80.4795L351.369 88.0205C353.481 88.7683 354.326 89.4706 354.593 89.8078L360.866 84.8422ZM354.109 80.5047C351.407 79.4915 347.609 78.5168 342.847 77.5543L341.262 85.3957C345.9 86.3331 349.202 87.2085 351.3 87.9953L354.109 80.5047ZM342.817 77.5483C338.03 76.6188 335.022 75.1771 333.288 73.5813L327.871 79.4687C331.137 82.4729 335.779 84.3312 341.292 85.4017L342.817 77.5483ZM333.317 73.6087C331.793 72.1777 330.904 70.2218 330.904 67.3H322.904C322.904 72.0782 324.466 76.2723 327.842 79.4413L333.317 73.6087ZM330.904 67.3C330.904 63.8357 332.074 61.462 334.278 59.6985L329.281 53.4515C324.985 56.8879 322.904 61.6643 322.904 67.3H330.904ZM334.255 59.717C336.629 57.8463 340.175 56.675 345.354 56.675V48.675C339.034 48.675 333.53 50.1037 329.304 53.433L334.255 59.717ZM345.354 56.675C348.988 56.675 351.917 57.3171 354.264 58.4514L357.745 51.2486C354.092 49.4828 349.921 48.675 345.354 48.675V56.675ZM354.313 58.4747C356.615 59.549 358.324 61.0899 359.55 63.133L366.409 59.017C364.335 55.5601 361.394 52.951 357.696 51.2253L354.313 58.4747ZM360.45 57.9764L356.775 60.9764L361.834 67.1736L365.509 64.1736L360.45 57.9764ZM362.622 61.8396C360.7 58.988 358.206 56.7662 355.168 55.2473L351.591 62.4027C353.353 63.2838 354.809 64.562 355.987 66.3104L362.622 61.8396ZM355.199 55.2626C352.195 53.7287 348.827 53.025 345.204 53.025V61.025C347.782 61.025 349.864 61.5213 351.56 62.3874L355.199 55.2626ZM345.204 53.025C340.668 53.025 336.572 54.0606 333.322 56.5495L338.187 62.9005C339.637 61.7894 341.841 61.025 345.204 61.025V53.025ZM333.289 56.575C329.972 59.1713 328.304 62.7832 328.304 67H336.304C336.304 65.1168 336.937 63.8787 338.22 62.875L333.289 56.575ZM328.304 67C328.304 70.8771 329.855 74.2121 332.918 76.6033L337.841 70.2967C336.804 69.4879 336.304 68.5229 336.304 67H328.304ZM332.967 76.6406C335.75 78.7447 339.848 80.1375 344.712 81.1207L346.297 73.2793C341.761 72.3625 339.109 71.2553 337.792 70.2594L332.967 76.6406ZM344.712 81.1208C349.537 82.0954 353.012 83.146 355.299 84.2049L358.66 76.9451C355.547 75.504 351.372 74.3046 346.297 73.2792L344.712 81.1208ZM355.324 84.2165C357.65 85.2734 358.864 86.3722 359.459 87.3036L366.2 82.9964C364.495 80.3278 361.809 78.3766 358.635 76.9335L355.324 84.2165ZM359.487 87.3467C360.079 88.2479 360.554 89.7069 360.554 92.05H368.554C368.554 88.6931 367.88 85.552 366.172 82.9533L359.487 87.3467ZM360.554 92.05C360.554 95.7776 359.307 98.1858 357.054 99.875L361.854 106.275C366.402 102.864 368.554 97.9224 368.554 92.05H360.554ZM357.085 99.8524C354.649 101.644 350.701 102.825 344.679 102.825V110.825C351.558 110.825 357.46 109.506 361.824 106.298L357.085 99.8524ZM409.359 100.675L412.393 103.282L409.359 100.675ZM397.434 106.525L396.901 102.561L389.45 103.564L394.445 109.182L397.434 106.525ZM409.659 110.95H413.659V107.093L409.805 106.953L409.659 110.95ZM409.659 115.675L409.571 119.674L413.659 119.765V115.675H409.659ZM398.559 113.35L396.746 116.915L396.758 116.921L396.771 116.928L398.559 113.35ZM392.109 106.825L395.687 105.036L394.61 102.882L392.202 102.826L392.109 106.825ZM377.334 101.725L374.548 104.595L374.559 104.606L374.57 104.616L377.334 101.725ZM377.559 57.625L380.26 60.5753L380.272 60.5651L380.283 60.5547L377.559 57.625ZM408.159 57.625L405.436 60.5547L405.447 60.5651L405.458 60.5753L408.159 57.625ZM404.109 60.85L401.309 63.7057L401.322 63.7191L401.336 63.7323L404.109 60.85ZM381.534 60.85L378.761 57.9677L378.747 57.9809L378.734 57.9942L381.534 60.85ZM381.534 98.65L378.734 101.506L378.747 101.519L378.761 101.532L381.534 98.65ZM404.109 98.65L401.336 95.7677L401.322 95.7809L401.309 95.7942L404.109 98.65ZM409.484 87.7C409.484 92.4785 408.289 95.7838 406.326 98.0679L412.393 103.282C415.93 99.1662 417.484 93.8215 417.484 87.7H409.484ZM406.326 98.0679C404.36 100.356 401.375 101.958 396.901 102.561L397.968 110.489C403.893 109.692 408.859 107.394 412.393 103.282L406.326 98.0679ZM394.445 109.182C396.184 111.139 398.453 112.518 401.039 113.442L403.73 105.908C402.116 105.332 401.085 104.611 400.424 103.868L394.445 109.182ZM401.039 113.442C403.603 114.358 406.446 114.836 409.514 114.947L409.805 106.953C407.372 106.864 405.366 106.492 403.73 105.908L401.039 113.442ZM405.659 110.95V115.675H413.659V110.95H405.659ZM409.748 111.676C405.624 111.584 402.556 110.876 400.348 109.772L396.771 116.928C400.363 118.724 404.695 119.566 409.571 119.674L409.748 111.676ZM400.373 109.785C398.297 108.729 396.76 107.182 395.687 105.036L388.532 108.614C390.359 112.268 393.121 115.071 396.746 116.915L400.373 109.785ZM392.202 102.826C386.376 102.691 382.546 101.173 380.098 98.8335L374.57 104.616C378.923 108.777 384.943 110.659 392.016 110.824L392.202 102.826ZM380.12 98.8547C377.697 96.5025 376.234 92.984 376.234 87.7H368.234C368.234 94.516 370.172 100.347 374.548 104.595L380.12 98.8547ZM376.234 87.7V71.8H368.234V87.7H376.234ZM376.234 71.8C376.234 66.3792 377.761 62.8635 380.26 60.5753L374.858 54.6747C370.258 58.8865 368.234 64.8208 368.234 71.8H376.234ZM380.283 60.5547C382.855 58.1638 386.84 56.675 392.859 56.675V48.675C385.579 48.675 379.364 50.4862 374.836 54.6953L380.283 60.5547ZM392.859 56.675C398.879 56.675 402.864 58.1638 405.436 60.5547L410.883 54.6953C406.355 50.4862 400.14 48.675 392.859 48.675V56.675ZM405.458 60.5753C407.958 62.8635 409.484 66.3792 409.484 71.8H417.484C417.484 64.8208 415.461 58.8865 410.86 54.6747L405.458 60.5753ZM409.484 71.8V87.7H417.484V71.8H409.484ZM412.084 71.8C412.084 66.2957 410.528 61.4753 406.883 57.9677L401.336 63.7323C402.991 65.3247 404.084 67.8042 404.084 71.8H412.084ZM406.91 57.9942C403.334 54.4863 398.435 53.025 392.859 53.025V61.025C397.084 61.025 399.685 62.1137 401.309 63.7057L406.91 57.9942ZM392.859 53.025C387.278 53.025 382.377 54.4883 378.761 57.9677L384.308 63.7323C385.992 62.1117 388.64 61.025 392.859 61.025V53.025ZM378.734 57.9942C375.153 61.506 373.634 66.3171 373.634 71.8H381.634C381.634 67.7829 382.716 65.294 384.335 63.7057L378.734 57.9942ZM373.634 71.8V87.7H381.634V71.8H373.634ZM373.634 87.7C373.634 93.1829 375.153 97.994 378.734 101.506L384.335 95.7942C382.716 94.206 381.634 91.7171 381.634 87.7H373.634ZM378.761 101.532C382.377 105.012 387.278 106.475 392.859 106.475V98.475C388.64 98.475 385.992 97.3883 384.308 95.7677L378.761 101.532ZM392.859 106.475C398.435 106.475 403.334 105.014 406.91 101.506L401.309 95.7942C399.685 97.3863 397.084 98.475 392.859 98.475V106.475ZM406.883 101.532C410.528 98.0247 412.084 93.2042 412.084 87.7H404.084C404.084 91.6957 402.991 94.1753 401.336 95.7677L406.883 101.532ZM412.084 87.7V71.8H404.084V87.7H412.084ZM428.836 102.85L426.393 106.017L426.418 106.036L426.443 106.055L428.836 102.85ZM423.586 53.5V49.5H419.586V53.5H423.586ZM428.986 53.5H432.986V49.5H428.986V53.5ZM432.811 99.625L430.421 102.833L430.421 102.833L432.811 99.625ZM454.111 99.625L456.501 102.833L456.501 102.833L454.111 99.625ZM457.936 53.5V49.5H453.936V53.5H457.936ZM463.336 53.5H467.336V49.5H463.336V53.5ZM458.011 102.85L460.425 106.039L460.432 106.034L458.011 102.85ZM443.461 102.825C437.787 102.825 433.86 101.609 431.229 99.6446L426.443 106.055C430.912 109.391 436.735 110.825 443.461 110.825V102.825ZM431.279 99.6829C428.831 97.7941 427.586 95.301 427.586 91.75H419.586C419.586 97.599 421.841 102.506 426.393 106.017L431.279 99.6829ZM427.586 91.75V53.5H419.586V91.75H427.586ZM423.586 57.5H428.986V49.5H423.586V57.5ZM424.986 53.5V91.75H432.986V53.5H424.986ZM424.986 91.75C424.986 96.2845 426.796 100.132 430.421 102.833L435.201 96.4175C433.726 95.3183 432.986 93.9155 432.986 91.75H424.986ZM430.421 102.833C433.903 105.427 438.409 106.475 443.461 106.475V98.475C439.413 98.475 436.819 97.6234 435.201 96.4175L430.421 102.833ZM443.461 106.475C448.513 106.475 453.019 105.427 456.501 102.833L451.721 96.4175C450.103 97.6234 447.509 98.475 443.461 98.475V106.475ZM456.501 102.833C460.126 100.132 461.936 96.2845 461.936 91.75H453.936C453.936 93.9155 453.196 95.3183 451.721 96.4175L456.501 102.833ZM461.936 91.75V53.5H453.936V91.75H461.936ZM457.936 57.5H463.336V49.5H457.936V57.5ZM459.336 53.5V91.75H467.336V53.5H459.336ZM459.336 91.75C459.336 95.2787 458.084 97.7688 455.589 99.6662L460.432 106.034C465.038 102.531 467.336 97.6213 467.336 91.75H459.336ZM455.596 99.661C453.026 101.607 449.139 102.825 443.461 102.825V110.825C450.183 110.825 455.995 109.393 460.425 106.039L455.596 99.661ZM505.105 89.125L508.929 87.9522L508.062 85.125H505.105V89.125ZM481.405 89.125V85.125H478.448L477.581 87.9522L481.405 89.125ZM476.23 106V110H479.187L480.054 107.173L476.23 106ZM470.83 106L467.009 104.818L465.405 110H470.83V106ZM484.405 62.125L480.584 60.9411L480.584 60.9427L484.405 62.125ZM487.93 54.775L484.999 52.0532L484.995 52.0574L487.93 54.775ZM498.58 54.775L495.649 57.4968L495.674 57.5234L495.699 57.5496L498.58 54.775ZM502.18 62.125L506.001 60.9427L506.001 60.9411L502.18 62.125ZM515.755 106V110H521.18L519.576 104.818L515.755 106ZM510.28 106L506.456 107.173L507.323 110H510.28V106ZM503.83 84.925V88.925H509.242L507.654 83.7513L503.83 84.925ZM496.855 62.2L500.679 61.0263L500.67 60.9974L500.661 60.9687L496.855 62.2ZM495.28 58.675L492.11 61.1138L492.11 61.1138L495.28 58.675ZM491.305 58.675L488.135 56.2362L488.135 56.2362L491.305 58.675ZM489.73 62.2L485.924 60.9687L485.915 60.9974L485.906 61.0263L489.73 62.2ZM482.755 84.925L478.931 83.7513L477.343 88.925H482.755V84.925ZM505.105 85.125H481.405V93.125H505.105V85.125ZM477.581 87.9522L472.406 104.827L480.054 107.173L485.229 90.2978L477.581 87.9522ZM476.23 102H470.83V110H476.23V102ZM474.651 107.182L488.226 63.3073L480.584 60.9427L467.009 104.818L474.651 107.182ZM488.226 63.3089C489.294 59.8632 490.257 58.1489 490.865 57.4926L484.995 52.0574C483.103 54.1011 481.717 57.2868 480.584 60.9411L488.226 63.3089ZM490.861 57.4968C491.269 57.0573 491.902 56.675 493.255 56.675V48.675C490.108 48.675 487.191 49.6927 484.999 52.0532L490.861 57.4968ZM493.255 56.675C494.608 56.675 495.241 57.0573 495.649 57.4968L501.511 52.0532C499.319 49.6927 496.402 48.675 493.255 48.675V56.675ZM495.699 57.5496C496.318 58.1927 497.297 59.8797 498.359 63.3089L506.001 60.9411C504.863 57.2703 503.442 54.0573 501.461 52.0004L495.699 57.5496ZM498.359 63.3073L511.934 107.182L519.576 104.818L506.001 60.9427L498.359 63.3073ZM515.755 102H510.28V110H515.755V102ZM514.104 104.827L508.929 87.9522L501.281 90.2978L506.456 107.173L514.104 104.827ZM507.654 83.7513L500.679 61.0263L493.031 63.3737L500.006 86.0987L507.654 83.7513ZM500.661 60.9687C500.096 59.2238 499.402 57.4732 498.451 56.2362L492.11 61.1138C492.092 61.0905 492.199 61.2323 492.397 61.6755C492.583 62.0932 492.803 62.6694 493.049 63.4313L500.661 60.9687ZM498.451 56.2362C497.162 54.5606 495.294 53.7 493.255 53.7V61.7C493.16 61.7 492.936 61.679 492.664 61.5478C492.386 61.4143 492.204 61.2363 492.11 61.1138L498.451 56.2362ZM493.255 53.7C491.177 53.7 489.37 54.6307 488.135 56.2362L494.476 61.1138C494.405 61.2061 494.238 61.3807 493.956 61.5215C493.672 61.6638 493.412 61.7 493.255 61.7V53.7ZM488.135 56.2362C487.183 57.4732 486.489 59.2238 485.924 60.9687L493.536 63.4313C493.782 62.6694 494.002 62.0932 494.188 61.6755C494.386 61.2323 494.494 61.0905 494.476 61.1138L488.135 56.2362ZM485.906 61.0263L478.931 83.7513L486.579 86.0987L493.554 63.3737L485.906 61.0263ZM482.755 88.925H503.83V80.925H482.755V88.925ZM564.219 106V110H569.453L568.078 104.949L564.219 106ZM558.444 106L554.579 107.031L555.37 110H558.444V106ZM554.844 92.5L558.709 91.4693L558.706 91.4601L554.844 92.5ZM552.444 86.425L549.045 88.5345L549.045 88.5345L552.444 86.425ZM548.694 83.275L547.047 86.9205L547.117 86.952L547.188 86.9809L548.694 83.275ZM530.169 82.225V78.225H526.169V82.225H530.169ZM530.169 106V110H534.169V106H530.169ZM524.769 106H520.769V110H524.769V106ZM524.769 53.5V49.5H520.769V53.5H524.769ZM558.444 57.175L555.672 60.0594L555.686 60.0729L555.7 60.0862L558.444 57.175ZM559.644 76.525L556.52 74.0262L556.513 74.0349L559.644 76.525ZM552.144 80.65L551.476 76.7061L536.543 79.2332L550.777 84.4092L552.144 80.65ZM557.244 84.625L553.888 86.8018L553.908 86.8333L553.929 86.8644L557.244 84.625ZM560.544 92.5L564.403 91.4493L564.4 91.4365L564.396 91.4236L560.544 92.5ZM554.244 60.475L557.032 57.607L557.032 57.607L554.244 60.475ZM530.169 57.85V53.85H526.169V57.85H530.169ZM530.169 77.875H526.169V81.875H530.169V77.875ZM564.219 102H558.444V110H564.219V102ZM562.308 104.969L558.708 91.4693L550.979 93.5307L554.579 107.031L562.308 104.969ZM558.706 91.4601C557.956 88.6738 557.031 86.2317 555.842 84.3155L549.045 88.5345C549.656 89.5183 550.331 91.1261 550.981 93.5399L558.706 91.4601ZM555.842 84.3155C554.49 82.1374 552.573 80.5335 550.199 79.5691L547.188 86.9809C548.014 87.3165 548.597 87.8126 549.045 88.5345L555.842 84.3155ZM550.34 79.6295C548.057 78.5986 545.29 78.225 542.319 78.225V86.225C544.748 86.225 546.23 86.5514 547.047 86.9205L550.34 79.6295ZM542.319 78.225H530.169V86.225H542.319V78.225ZM526.169 82.225V106H534.169V82.225H526.169ZM530.169 102H524.769V110H530.169V102ZM528.769 106V53.5H520.769V106H528.769ZM524.769 57.5H547.269V49.5H524.769V57.5ZM547.269 57.5C551.539 57.5 554.115 58.563 555.672 60.0594L561.215 54.2906C557.672 50.887 552.798 49.5 547.269 49.5V57.5ZM555.7 60.0862C557.31 61.6027 558.344 63.8881 558.344 67.525H566.344C566.344 62.2619 564.777 57.6473 561.187 54.2638L555.7 60.0862ZM558.344 67.525C558.344 70.6431 557.601 72.6748 556.52 74.0262L562.767 79.0238C565.286 75.8752 566.344 71.9069 566.344 67.525H558.344ZM556.513 74.0349C555.481 75.3329 553.932 76.2905 551.476 76.7061L552.811 84.5939C556.855 83.9095 560.306 82.1171 562.774 79.0151L556.513 74.0349ZM550.777 84.4092C552.213 84.9315 553.191 85.728 553.888 86.8018L560.599 82.4482C558.896 79.822 556.474 77.9685 553.511 76.8908L550.777 84.4092ZM553.929 86.8644C554.84 88.2131 555.798 90.3791 556.691 93.5764L564.396 91.4236C563.389 87.8209 562.147 84.7369 560.558 82.3856L553.929 86.8644ZM556.684 93.5507L560.359 107.051L568.078 104.949L564.403 91.4493L556.684 93.5507ZM546.669 81.875C550.641 81.875 554.284 80.7893 557.032 78.118L551.455 72.382C550.603 73.2107 549.196 73.875 546.669 73.875V81.875ZM557.032 78.118C559.793 75.4333 560.944 71.8388 560.944 67.9H552.944C552.944 70.2612 552.294 71.5667 551.455 72.382L557.032 78.118ZM560.944 67.9C560.944 63.9324 559.805 60.3034 557.032 57.607L551.455 63.343C552.282 64.1466 552.944 65.4676 552.944 67.9H560.944ZM557.032 57.607C554.284 54.9357 550.641 53.85 546.669 53.85V61.85C549.196 61.85 550.603 62.5143 551.455 63.343L557.032 57.607ZM546.669 53.85H530.169V61.85H546.669V53.85ZM526.169 57.85V77.875H534.169V57.85H526.169ZM530.169 81.875H546.669V73.875H530.169V81.875ZM576.373 102.175L573.651 105.106L573.679 105.131L573.706 105.156L576.373 102.175ZM576.373 57.4L579.067 60.3574L579.069 60.3551L576.373 57.4ZM607.498 53.5H611.498V49.5H607.498V53.5ZM607.498 57.85V61.85H611.498V57.85H607.498ZM580.423 60.625L577.67 57.7231L577.651 57.741L577.633 57.7591L580.423 60.625ZM577.573 77.575H573.573V81.575H577.573V77.575ZM603.673 77.575H607.673V73.575H603.673V77.575ZM603.673 81.925V85.925H607.673V81.925H603.673ZM577.573 81.925V77.925H573.573V81.925H577.573ZM580.423 98.875L577.633 101.741L577.651 101.759L577.67 101.777L580.423 98.875ZM607.948 101.65H611.948V97.65H607.948V101.65ZM607.948 106V110H611.948V106H607.948ZM589.423 102C584.054 102 580.853 100.816 579.04 99.194L573.706 105.156C577.593 108.634 583.092 110 589.423 110V102ZM579.095 99.2438C577.386 97.6573 576.173 94.9564 576.173 90.325H568.173C568.173 96.2936 569.76 101.493 573.651 105.106L579.095 99.2438ZM576.173 90.325V69.175H568.173V90.325H576.173ZM576.173 69.175C576.173 64.5374 577.389 61.8853 579.067 60.3574L573.68 54.4426C569.758 58.0147 568.173 63.2126 568.173 69.175H576.173ZM579.069 60.3551C580.881 58.7017 584.071 57.5 589.423 57.5V49.5C583.076 49.5 577.565 50.8983 573.677 54.4449L579.069 60.3551ZM589.423 57.5H607.498V49.5H589.423V57.5ZM603.498 53.5V57.85H611.498V53.5H603.498ZM607.498 53.85H589.423V61.85H607.498V53.85ZM589.423 53.85C584.857 53.85 580.664 54.8825 577.67 57.7231L583.176 63.5269C584.082 62.6675 585.89 61.85 589.423 61.85V53.85ZM577.633 57.7591C574.667 60.6464 573.573 64.7358 573.573 69.175H581.573C581.573 65.9142 582.379 64.3036 583.214 63.4909L577.633 57.7591ZM573.573 69.175V77.575H581.573V69.175H573.573ZM577.573 81.575H603.673V73.575H577.573V81.575ZM599.673 77.575V81.925H607.673V77.575H599.673ZM603.673 77.925H577.573V85.925H603.673V77.925ZM573.573 81.925V90.325H581.573V81.925H573.573ZM573.573 90.325C573.573 94.7642 574.667 98.8536 577.633 101.741L583.214 96.0091C582.379 95.1964 581.573 93.5858 581.573 90.325H573.573ZM577.67 101.777C580.664 104.618 584.857 105.65 589.423 105.65V97.65C585.89 97.65 584.082 96.8325 583.176 95.9731L577.67 101.777ZM589.423 105.65H607.948V97.65H589.423V105.65ZM603.948 101.65V106H611.948V101.65H603.948ZM607.948 102H589.423V110H607.948V102ZM622.87 104.8L621.155 108.414L621.192 108.431L621.229 108.448L622.87 104.8ZM614.695 97.75L612.057 94.7435L609.259 97.1986L611.507 100.165L614.695 97.75ZM618.37 94.525L621.584 92.1428L618.997 88.6535L615.732 91.5185L618.37 94.525ZM625.045 100.675L623.195 104.221L623.211 104.229L623.226 104.237L625.045 100.675ZM644.845 99.775L642.568 96.4862L642.553 96.4966L642.539 96.5071L644.845 99.775ZM647.32 87.325L650.456 84.8422L650.456 84.8422L647.32 87.325ZM642.295 84.25L640.891 87.9953L640.925 88.0082L640.96 88.0205L642.295 84.25ZM631.645 81.475L632.438 77.5543L632.423 77.5513L632.408 77.5483L631.645 81.475ZM620.17 76.525L617.433 79.4413L617.447 79.4551L617.462 79.4687L620.17 76.525ZM621.37 56.575L618.895 53.433L618.883 53.4422L618.872 53.4515L621.37 56.575ZM645.595 54.85L643.855 58.4514L643.879 58.4632L643.904 58.4747L645.595 54.85ZM652.57 61.075L655.1 64.1736L657.781 61.9849L656 59.017L652.57 61.075ZM648.895 64.075L645.578 66.3104L648.028 69.9462L651.425 67.1736L648.895 64.075ZM642.97 58.825L641.151 62.3874L641.166 62.3951L641.181 62.4027L642.97 58.825ZM625.345 59.725L622.913 56.5495L622.896 56.5621L622.88 56.575L625.345 59.725ZM624.97 73.45L622.509 76.6033L622.533 76.6221L622.558 76.6406L624.97 73.45ZM635.095 77.2L634.303 81.1207L634.303 81.1208L635.095 77.2ZM646.57 80.575L644.89 84.2049L644.902 84.2107L644.915 84.2165L646.57 80.575ZM652.42 85.15L649.05 87.3036L649.063 87.3252L649.077 87.3467L652.42 85.15ZM649.045 103.075L651.415 106.298L651.43 106.286L651.445 106.275L649.045 103.075ZM634.27 102.825C630.026 102.825 626.833 102.197 624.512 101.152L621.229 108.448C624.907 110.103 629.315 110.825 634.27 110.825V102.825ZM624.585 101.186C622.35 100.126 620.097 98.2564 617.884 95.3346L611.507 100.165C614.293 103.844 617.49 106.674 621.155 108.414L624.585 101.186ZM617.334 100.757L621.009 97.5315L615.732 91.5185L612.057 94.7435L617.334 100.757ZM615.157 96.9072C617.535 100.114 620.191 102.654 623.195 104.221L626.896 97.1287C625.3 96.296 623.506 94.7355 621.584 92.1428L615.157 96.9072ZM623.226 104.237C626.306 105.81 629.957 106.475 633.97 106.475V98.475C630.784 98.475 628.484 97.9397 626.864 97.1126L623.226 104.237ZM633.97 106.475C639.103 106.475 643.664 105.505 647.152 103.043L642.539 96.5071C640.926 97.6453 638.238 98.475 633.97 98.475V106.475ZM647.122 103.064C650.837 100.492 652.745 96.7191 652.745 92.2H644.745C644.745 94.1809 644.054 95.4578 642.568 96.4862L647.122 103.064ZM652.745 92.2C652.745 89.554 652.13 86.9559 650.456 84.8422L644.184 89.8078C644.411 90.0941 644.745 90.746 644.745 92.2H652.745ZM650.456 84.8422C648.823 82.7794 646.319 81.4317 643.631 80.4795L640.96 88.0205C643.071 88.7683 643.917 89.4706 644.184 89.8078L650.456 84.8422ZM643.7 80.5047C640.998 79.4915 637.2 78.5168 632.438 77.5543L630.853 85.3957C635.491 86.3331 638.793 87.2085 640.891 87.9953L643.7 80.5047ZM632.408 77.5483C627.621 76.6188 624.613 75.1771 622.879 73.5813L617.462 79.4687C620.728 82.4729 625.37 84.3312 630.883 85.4017L632.408 77.5483ZM622.908 73.6087C621.384 72.1777 620.495 70.2218 620.495 67.3H612.495C612.495 72.0782 614.057 76.2723 617.433 79.4413L622.908 73.6087ZM620.495 67.3C620.495 63.8357 621.665 61.462 623.869 59.6985L618.872 53.4515C614.576 56.8879 612.495 61.6643 612.495 67.3H620.495ZM623.846 59.717C626.22 57.8463 629.766 56.675 634.945 56.675V48.675C628.625 48.675 623.121 50.1037 618.895 53.433L623.846 59.717ZM634.945 56.675C638.579 56.675 641.508 57.3171 643.855 58.4514L647.336 51.2486C643.683 49.4828 639.512 48.675 634.945 48.675V56.675ZM643.904 58.4747C646.206 59.549 647.915 61.0899 649.14 63.133L656 59.017C653.926 55.5601 650.985 52.951 647.287 51.2253L643.904 58.4747ZM650.041 57.9764L646.366 60.9764L651.425 67.1736L655.1 64.1736L650.041 57.9764ZM652.212 61.8396C650.291 58.988 647.797 56.7662 644.759 55.2473L641.181 62.4027C642.944 63.2838 644.4 64.562 645.578 66.3104L652.212 61.8396ZM644.789 55.2626C641.786 53.7287 638.417 53.025 634.795 53.025V61.025C637.373 61.025 639.455 61.5213 641.151 62.3874L644.789 55.2626ZM634.795 53.025C630.259 53.025 626.162 54.0606 622.913 56.5495L627.778 62.9005C629.228 61.7894 631.432 61.025 634.795 61.025V53.025ZM622.88 56.575C619.563 59.1713 617.895 62.7832 617.895 67H625.895C625.895 65.1168 626.528 63.8787 627.811 62.875L622.88 56.575ZM617.895 67C617.895 70.8771 619.446 74.2121 622.509 76.6033L627.431 70.2967C626.395 69.4879 625.895 68.5229 625.895 67H617.895ZM622.558 76.6406C625.341 78.7447 629.439 80.1375 634.303 81.1207L635.888 73.2793C631.352 72.3625 628.7 71.2553 627.383 70.2594L622.558 76.6406ZM634.303 81.1208C639.127 82.0954 642.603 83.146 644.89 84.2049L648.251 76.9451C645.138 75.504 640.963 74.3046 635.887 73.2792L634.303 81.1208ZM644.915 84.2165C647.24 85.2734 648.455 86.3722 649.05 87.3036L655.791 82.9964C654.086 80.3278 651.4 78.3766 648.226 76.9335L644.915 84.2165ZM649.077 87.3467C649.67 88.2479 650.145 89.7069 650.145 92.05H658.145C658.145 88.6931 657.471 85.552 655.763 82.9533L649.077 87.3467ZM650.145 92.05C650.145 95.7776 648.898 98.1858 646.645 99.875L651.445 106.275C655.993 102.864 658.145 97.9224 658.145 92.05H650.145ZM646.676 99.8524C644.24 101.644 640.292 102.825 634.27 102.825V110.825C641.149 110.825 647.051 109.506 651.415 106.298L646.676 99.8524Z" fill="#4B4B4B"/>
<rect x="24" y="48" width="64" height="64" rx="6" fill="#1A1A1A"/>
<path d="M26 53C26 51.3431 27.3431 50 29 50H43C44.6569 50 46 51.3431 46 53V67C46 68.6569 44.6569 70 43 70H29C27.3431 70 26 68.6569 26 67V53Z" fill="#65946A"/>
<path d="M66 53C66 51.3431 67.3431 50 69 50H83C84.6569 50 86 51.3431 86 53V67C86 68.6569 84.6569 70 83 70H69C67.3431 70 66 68.6569 66 67V53Z" fill="#9EFF9E"/>
<path d="M26 93C26 91.3431 27.3431 90 29 90H43C44.6569 90 46 91.3431 46 93V107C46 108.657 44.6569 110 43 110H29C27.3431 110 26 108.657 26 107V93Z" fill="#9EFF9E"/>
<path d="M46 73C46 71.3431 47.3431 70 49 70H63C64.6569 70 66 71.3431 66 73V87C66 88.6569 64.6569 90 63 90H49C47.3431 90 46 88.6569 46 87V73Z" fill="#4B4B4B"/>
<g filter="url(#filter0_d_1_200)">
<path d="M124.875 100.825C118.025 100.825 112.8 99.2 109.2 95.95C105.65 92.65 103.875 87.9 103.875 81.7V65.725C103.875 59.475 105.65 54.75 109.2 51.55C112.8 48.3 118.075 46.675 125.025 46.675C133.375 46.675 139.625 49.15 143.775 54.1L139.875 57.25C136.375 53.1 131.4 51.025 124.95 51.025C119.75 51.025 115.825 52.275 113.175 54.775C110.575 57.225 109.275 60.875 109.275 65.725V81.7C109.275 86.6 110.6 90.3 113.25 92.8C115.9 95.25 119.8 96.475 124.95 96.475C129.45 96.475 133.025 95.6 135.675 93.85C138.325 92.1 139.65 89.75 139.65 86.8V82C139.65 79.75 139.05 78.05 137.85 76.9C136.65 75.7 134.925 75.1 132.675 75.1H123.675V70.75H133.8C141.2 70.75 144.9 74.325 144.9 81.475V87.1C144.9 89.9 144.075 92.325 142.425 94.375C140.825 96.425 138.5 98.025 135.45 99.175C132.45 100.275 128.925 100.825 124.875 100.825ZM184.671 83.125H160.971L155.796 100H150.396L163.971 56.125C165.071 52.575 166.246 50.125 167.496 48.775C168.796 47.375 170.571 46.675 172.821 46.675C175.071 46.675 176.846 47.375 178.146 48.775C179.446 50.125 180.646 52.575 181.746 56.125L195.321 100H189.846L184.671 83.125ZM183.396 78.925L176.421 56.2C175.871 54.5 175.346 53.325 174.846 52.675C174.346 52.025 173.671 51.7 172.821 51.7C172.021 51.7 171.371 52.025 170.871 52.675C170.371 53.325 169.846 54.5 169.296 56.2L162.321 78.925H183.396ZM204.709 47.5H207.934C210.134 47.5 211.909 48 213.259 49C214.659 49.95 216.009 51.675 217.309 54.175L228.409 75.4L239.509 54.175C240.809 51.675 242.134 49.95 243.484 49C244.884 48 246.684 47.5 248.884 47.5H252.109V100H247.009V52.9C246.309 53 245.684 53.275 245.134 53.725C244.634 54.125 244.109 54.85 243.559 55.9L228.409 84.4L213.259 55.9C212.659 54.8 212.109 54.05 211.609 53.65C211.109 53.2 210.509 52.95 209.809 52.9V100H204.709V47.5ZM281.229 100C275.379 100 271.029 98.725 268.179 96.175C265.379 93.575 263.979 89.625 263.979 84.325V63.175C263.979 57.875 265.379 53.95 268.179 51.4C271.029 48.8 275.379 47.5 281.229 47.5H299.304V51.85H281.229C277.179 51.85 274.179 52.775 272.229 54.625C270.329 56.475 269.379 59.325 269.379 63.175V71.575H295.479V75.925H269.379V84.325C269.379 88.175 270.329 91.025 272.229 92.875C274.179 94.725 277.179 95.65 281.229 95.65H299.754V100H281.229Z" fill="#9EFF9E"/>
<path d="M109.2 95.95L106.477 98.8797L106.498 98.8995L106.52 98.9191L109.2 95.95ZM109.2 51.55L111.878 54.5211L111.88 54.5191L109.2 51.55ZM143.775 54.1L146.288 57.2118L149.458 54.652L146.84 51.5301L143.775 54.1ZM139.875 57.25L136.817 59.8288L139.342 62.8223L142.388 60.3618L139.875 57.25ZM113.175 54.775L115.918 57.6862L115.92 57.6846L113.175 54.775ZM113.25 92.8L110.505 95.7096L110.52 95.7234L110.535 95.7371L113.25 92.8ZM135.675 93.85L133.471 90.5121L133.471 90.5121L135.675 93.85ZM137.85 76.9L135.022 79.7284L135.052 79.7585L135.082 79.788L137.85 76.9ZM123.675 75.1H119.675V79.1H123.675V75.1ZM123.675 70.75V66.75H119.675V70.75H123.675ZM142.425 94.375L139.309 91.867L139.29 91.8903L139.272 91.9139L142.425 94.375ZM135.45 99.175L136.827 102.931L136.844 102.924L136.861 102.918L135.45 99.175ZM124.875 96.825C118.608 96.825 114.491 95.3376 111.88 92.9809L106.52 98.9191C111.109 103.062 117.442 104.825 124.875 104.825V96.825ZM111.923 93.0203C109.401 90.6753 107.875 87.1175 107.875 81.7H99.875C99.875 88.6825 101.899 94.6247 106.477 98.8797L111.923 93.0203ZM107.875 81.7V65.725H99.875V81.7H107.875ZM107.875 65.725C107.875 60.2392 109.409 56.7466 111.878 54.5211L106.522 48.5789C101.891 52.7534 99.875 58.7108 99.875 65.725H107.875ZM111.88 54.5191C114.481 52.1709 118.64 50.675 125.025 50.675V42.675C117.51 42.675 111.119 44.4291 106.52 48.5809L111.88 54.5191ZM125.025 50.675C132.564 50.675 137.53 52.8774 140.71 56.6699L146.84 51.5301C141.72 45.4226 134.186 42.675 125.025 42.675V50.675ZM141.262 50.9882L137.362 54.1382L142.388 60.3618L146.288 57.2118L141.262 50.9882ZM142.933 54.6712C138.528 49.4482 132.334 47.025 124.95 47.025V55.025C130.466 55.025 134.222 56.7517 136.817 59.8288L142.933 54.6712ZM124.95 47.025C119.165 47.025 114.088 48.4145 110.43 51.8654L115.92 57.6846C117.562 56.1355 120.335 55.025 124.95 55.025V47.025ZM110.432 51.8638C106.774 55.3103 105.275 60.1813 105.275 65.725H113.275C113.275 61.5687 114.376 59.1397 115.918 57.6862L110.432 51.8638ZM105.275 65.725V81.7H113.275V65.725H105.275ZM105.275 81.7C105.275 87.3064 106.806 92.22 110.505 95.7096L115.995 89.8904C114.394 88.38 113.275 85.8936 113.275 81.7H105.275ZM110.535 95.7371C114.187 99.1141 119.221 100.475 124.95 100.475V92.475C120.379 92.475 117.613 91.3859 115.965 89.8629L110.535 95.7371ZM124.95 100.475C129.921 100.475 134.355 99.5149 137.879 97.1879L133.471 90.5121C131.695 91.6851 128.979 92.475 124.95 92.475V100.475ZM137.879 97.1879C141.548 94.7648 143.65 91.2114 143.65 86.8H135.65C135.65 88.2886 135.102 89.4352 133.471 90.5121L137.879 97.1879ZM143.65 86.8V82H135.65V86.8H143.65ZM143.65 82C143.65 79.0586 142.853 76.154 140.618 74.012L135.082 79.788C135.247 79.946 135.65 80.4414 135.65 82H143.65ZM140.678 74.0716C138.508 71.9015 135.628 71.1 132.675 71.1V79.1C134.222 79.1 134.792 79.4985 135.022 79.7284L140.678 74.0716ZM132.675 71.1H123.675V79.1H132.675V71.1ZM127.675 75.1V70.75H119.675V75.1H127.675ZM123.675 74.75H133.8V66.75H123.675V74.75ZM133.8 74.75C136.917 74.75 138.514 75.5046 139.346 76.3079C140.151 77.0864 140.9 78.5522 140.9 81.475H148.9C148.9 77.2478 147.799 73.3511 144.904 70.5546C142.036 67.7829 138.083 66.75 133.8 66.75V74.75ZM140.9 81.475V87.1H148.9V81.475H140.9ZM140.9 87.1C140.9 89.0504 140.349 90.5751 139.309 91.867L145.541 96.883C147.801 94.0749 148.9 90.7496 148.9 87.1H140.9ZM139.272 91.9139C138.225 93.2547 136.574 94.4762 134.039 95.4322L136.861 102.918C140.426 101.574 143.425 99.5953 145.578 96.8361L139.272 91.9139ZM134.073 95.4195C131.614 96.321 128.575 96.825 124.875 96.825V104.825C129.275 104.825 133.286 104.229 136.827 102.931L134.073 95.4195ZM184.671 83.125L188.495 81.9522L187.628 79.125H184.671V83.125ZM160.971 83.125V79.125H158.013L157.146 81.9522L160.971 83.125ZM155.796 100V104H158.753L159.62 101.173L155.796 100ZM150.396 100L146.574 98.8177L144.971 104H150.396V100ZM163.971 56.125L160.15 54.9411L160.149 54.9427L163.971 56.125ZM167.496 48.775L164.564 46.0532L164.56 46.0574L167.496 48.775ZM178.146 48.775L175.214 51.4968L175.239 51.5234L175.264 51.5496L178.146 48.775ZM181.746 56.125L185.567 54.9427L185.566 54.9411L181.746 56.125ZM195.321 100V104H200.745L199.142 98.8177L195.321 100ZM189.846 100L186.021 101.173L186.888 104H189.846V100ZM183.396 78.925V82.925H188.807L187.219 77.7513L183.396 78.925ZM176.421 56.2L180.244 55.0263L180.236 54.9974L180.226 54.9687L176.421 56.2ZM174.846 52.675L171.675 55.1138L171.675 55.1138L174.846 52.675ZM170.871 52.675L167.7 50.2362L167.7 50.2362L170.871 52.675ZM169.296 56.2L165.49 54.9687L165.48 54.9974L165.472 55.0263L169.296 56.2ZM162.321 78.925L158.497 77.7513L156.909 82.925H162.321V78.925ZM184.671 79.125H160.971V87.125H184.671V79.125ZM157.146 81.9522L151.971 98.8272L159.62 101.173L164.795 84.2978L157.146 81.9522ZM155.796 96H150.396V104H155.796V96ZM154.217 101.182L167.792 57.3073L160.149 54.9427L146.574 98.8177L154.217 101.182ZM167.791 57.3089C168.859 53.8632 169.823 52.1489 170.431 51.4926L164.56 46.0574C162.668 48.1011 161.282 51.2868 160.15 54.9411L167.791 57.3089ZM170.427 51.4968C170.835 51.0573 171.467 50.675 172.821 50.675V42.675C169.674 42.675 166.756 43.6927 164.564 46.0532L170.427 51.4968ZM172.821 50.675C174.174 50.675 174.806 51.0573 175.214 51.4968L181.077 46.0532C178.885 43.6927 175.967 42.675 172.821 42.675V50.675ZM175.264 51.5496C175.884 52.1927 176.862 53.8797 177.925 57.3089L185.566 54.9411C184.429 51.2703 183.007 48.0573 181.027 46.0004L175.264 51.5496ZM177.924 57.3073L191.499 101.182L199.142 98.8177L185.567 54.9427L177.924 57.3073ZM195.321 96H189.846V104H195.321V96ZM193.67 98.8272L188.495 81.9522L180.846 84.2978L186.021 101.173L193.67 98.8272ZM187.219 77.7513L180.244 55.0263L172.597 57.3737L179.572 80.0987L187.219 77.7513ZM180.226 54.9687C179.662 53.2238 178.968 51.4732 178.016 50.2362L171.675 55.1138C171.657 55.0905 171.764 55.2323 171.962 55.6755C172.149 56.0932 172.368 56.6694 172.615 57.4313L180.226 54.9687ZM178.016 50.2362C176.727 48.5606 174.859 47.7 172.821 47.7V55.7C172.726 55.7 172.502 55.679 172.229 55.5478C171.952 55.4143 171.769 55.2363 171.675 55.1138L178.016 50.2362ZM172.821 47.7C170.743 47.7 168.935 48.6307 167.7 50.2362L174.041 55.1138C173.97 55.2061 173.803 55.3807 173.522 55.5215C173.237 55.6638 172.978 55.7 172.821 55.7V47.7ZM167.7 50.2362C166.748 51.4732 166.054 53.2238 165.49 54.9687L173.101 57.4313C173.348 56.6694 173.567 56.0932 173.754 55.6755C173.952 55.2323 174.059 55.0905 174.041 55.1138L167.7 50.2362ZM165.472 55.0263L158.497 77.7513L166.144 80.0987L173.119 57.3737L165.472 55.0263ZM162.321 82.925H183.396V74.925H162.321V82.925ZM204.709 47.5V43.5H200.709V47.5H204.709ZM213.259 49L210.878 52.2142L210.945 52.2635L211.013 52.3099L213.259 49ZM217.309 54.175L213.76 56.0204L213.764 56.0287L217.309 54.175ZM228.409 75.4L224.864 77.2537L228.409 84.0314L231.954 77.2537L228.409 75.4ZM239.509 54.175L243.054 56.0287L243.058 56.0204L239.509 54.175ZM243.484 49L245.786 52.2712L245.797 52.2631L245.809 52.2549L243.484 49ZM252.109 47.5H256.109V43.5H252.109V47.5ZM252.109 100V104H256.109V100H252.109ZM247.009 100H243.009V104H247.009V100ZM247.009 52.9H251.009V48.288L246.443 48.9402L247.009 52.9ZM245.134 53.725L247.633 56.8485L247.65 56.8347L247.667 56.8208L245.134 53.725ZM243.559 55.9L247.091 57.7775L247.097 57.7668L247.102 57.756L243.559 55.9ZM228.409 84.4L224.877 86.2775L228.409 92.9218L231.941 86.2775L228.409 84.4ZM213.259 55.9L216.791 54.0225L216.781 54.0035L216.771 53.9846L213.259 55.9ZM211.609 53.65L208.933 56.6232L209.019 56.7009L209.11 56.7735L211.609 53.65ZM209.809 52.9L210.094 48.9102L205.809 48.6041V52.9H209.809ZM209.809 100V104H213.809V100H209.809ZM204.709 100H200.709V104H204.709V100ZM204.709 51.5H207.934V43.5H204.709V51.5ZM207.934 51.5C209.541 51.5 210.403 51.8624 210.878 52.2142L215.64 45.7858C213.415 44.1376 210.727 43.5 207.934 43.5V51.5ZM211.013 52.3099C211.613 52.7171 212.586 53.7634 213.76 56.0204L220.858 52.3296C219.431 49.5866 217.705 47.1829 215.505 45.6901L211.013 52.3099ZM213.764 56.0287L224.864 77.2537L231.954 73.5463L220.854 52.3213L213.764 56.0287ZM231.954 77.2537L243.054 56.0287L235.964 52.3213L224.864 73.5463L231.954 77.2537ZM243.058 56.0204C244.244 53.739 245.208 52.6782 245.786 52.2712L241.182 45.7288C239.06 47.2218 237.374 49.611 235.96 52.3296L243.058 56.0204ZM245.809 52.2549C246.363 51.8592 247.285 51.5 248.884 51.5V43.5C246.083 43.5 243.405 44.1408 241.159 45.7451L245.809 52.2549ZM248.884 51.5H252.109V43.5H248.884V51.5ZM248.109 47.5V100H256.109V47.5H248.109ZM252.109 96H247.009V104H252.109V96ZM251.009 100V52.9H243.009V100H251.009ZM246.443 48.9402C245.017 49.1439 243.713 49.7196 242.601 50.6292L247.667 56.8208C247.671 56.8173 247.669 56.8193 247.661 56.8245C247.653 56.8297 247.641 56.8361 247.626 56.8425C247.612 56.8489 247.598 56.8535 247.587 56.8566C247.577 56.8597 247.572 56.8602 247.575 56.8598L246.443 48.9402ZM242.635 50.6015C241.477 51.5282 240.641 52.8505 240.016 54.044L247.102 57.756C247.315 57.3504 247.485 57.0809 247.605 56.9148C247.733 56.7374 247.75 56.7545 247.633 56.8485L242.635 50.6015ZM240.027 54.0225L224.877 82.5225L231.941 86.2775L247.091 57.7775L240.027 54.0225ZM231.941 82.5225L216.791 54.0225L209.727 57.7775L224.877 86.2775L231.941 82.5225ZM216.771 53.9846C216.113 52.7788 215.253 51.443 214.108 50.5265L209.11 56.7735C208.993 56.6793 209.019 56.6707 209.171 56.878C209.312 57.07 209.505 57.3718 209.747 57.8154L216.771 53.9846ZM214.285 50.6768C213.093 49.6042 211.641 49.0206 210.094 48.9102L209.524 56.8898C209.477 56.8865 209.375 56.8713 209.246 56.8173C209.114 56.7625 209.007 56.6897 208.933 56.6232L214.285 50.6768ZM205.809 52.9V100H213.809V52.9H205.809ZM209.809 96H204.709V104H209.809V96ZM208.709 100V47.5H200.709V100H208.709ZM268.179 96.175L265.457 99.1062L265.484 99.1313L265.512 99.156L268.179 96.175ZM268.179 51.4L270.872 54.3574L270.875 54.3551L268.179 51.4ZM299.304 47.5H303.304V43.5H299.304V47.5ZM299.304 51.85V55.85H303.304V51.85H299.304ZM272.229 54.625L269.476 51.7231L269.457 51.741L269.438 51.7591L272.229 54.625ZM269.379 71.575H265.379V75.575H269.379V71.575ZM295.479 71.575H299.479V67.575H295.479V71.575ZM295.479 75.925V79.925H299.479V75.925H295.479ZM269.379 75.925V71.925H265.379V75.925H269.379ZM272.229 92.875L269.438 95.7409L269.457 95.759L269.476 95.7769L272.229 92.875ZM299.754 95.65H303.754V91.65H299.754V95.65ZM299.754 100V104H303.754V100H299.754ZM281.229 96C275.86 96 272.659 94.816 270.846 93.194L265.512 99.156C269.399 102.634 274.898 104 281.229 104V96ZM270.901 93.2438C269.192 91.6573 267.979 88.9564 267.979 84.325H259.979C259.979 90.2936 261.566 95.4927 265.457 99.1062L270.901 93.2438ZM267.979 84.325V63.175H259.979V84.325H267.979ZM267.979 63.175C267.979 58.5374 269.194 55.8853 270.872 54.3574L265.486 48.4426C261.563 52.0147 259.979 57.2126 259.979 63.175H267.979ZM270.875 54.3551C272.687 52.7017 275.876 51.5 281.229 51.5V43.5C274.881 43.5 269.371 44.8983 265.483 48.4449L270.875 54.3551ZM281.229 51.5H299.304V43.5H281.229V51.5ZM295.304 47.5V51.85H303.304V47.5H295.304ZM299.304 47.85H281.229V55.85H299.304V47.85ZM281.229 47.85C276.663 47.85 272.47 48.8825 269.476 51.7231L274.982 57.5269C275.888 56.6675 277.695 55.85 281.229 55.85V47.85ZM269.438 51.7591C266.473 54.6464 265.379 58.7358 265.379 63.175H273.379C273.379 59.9142 274.185 58.3036 275.019 57.4909L269.438 51.7591ZM265.379 63.175V71.575H273.379V63.175H265.379ZM269.379 75.575H295.479V67.575H269.379V75.575ZM291.479 71.575V75.925H299.479V71.575H291.479ZM295.479 71.925H269.379V79.925H295.479V71.925ZM265.379 75.925V84.325H273.379V75.925H265.379ZM265.379 84.325C265.379 88.7642 266.473 92.8536 269.438 95.7409L275.019 90.0091C274.185 89.1964 273.379 87.5858 273.379 84.325H265.379ZM269.476 95.7769C272.47 98.6175 276.663 99.65 281.229 99.65V91.65C277.695 91.65 275.888 90.8325 274.982 89.9731L269.476 95.7769ZM281.229 99.65H299.754V91.65H281.229V99.65ZM295.754 95.65V100H303.754V95.65H295.754ZM299.754 96H281.229V104H299.754V96Z" fill="#9EFF9E"/>
</g>
<defs>
<filter id="filter0_d_1_200" x="95.875" y="42.675" width="211.879" height="70.15" filterUnits="userSpaceOnUse" color-interpolation-filters="sRGB">
<feFlood flood-opacity="0" result="BackgroundImageFix"/>
<feColorMatrix in="SourceAlpha" type="matrix" values="0 0 0 0 0 0 0 0 0 0 0 0 0 0 0 0 0 0 127 0" result="hardAlpha"/>
<feOffset dy="4"/>
<feGaussianBlur stdDeviation="4"/>
<feComposite in2="hardAlpha" operator="out"/>
<feColorMatrix type="matrix" values="0 0 0 0 0.619608 0 0 0 0 1 0 0 0 0 0.619608 0 0 0 1 0"/>
<feBlend mode="lighten" in2="BackgroundImageFix" result="effect1_dropShadow_1_200"/>
<feBlend mode="normal" in="SourceGraphic" in2="effect1_dropShadow_1_200" result="shape"/>
</filter>
</defs>
</svg>
